<svg width="40" height="41" viewBox="0 0 40 41" fill="none" xmlns="http://www.w3.org/2000/svg">
<g opacity="0.4">
<path d="M24.0305 9.61509C23.2371 9.46853 22.5085 9.97485 22.3574 10.7493C22.2064 11.5238 22.7143 12.2799 23.4861 12.4315C25.8099 12.8845 27.6041 14.6833 28.0589 17.015V17.0167C28.1884 17.6879 28.7793 18.1759 29.4598 18.1759C29.5511 18.1759 29.6424 18.1676 29.7354 18.1509C30.5072 17.996 31.0151 17.2415 30.8641 16.4654C30.1852 12.9828 27.5046 10.293 24.0305 9.61509Z" fill="#1777E5"/>
<path d="M23.9255 3.81204C23.5537 3.75875 23.1802 3.86867 22.8831 4.10518C22.5777 4.34501 22.3868 4.69144 22.3453 5.07951C22.2573 5.86397 22.8233 6.57348 23.6068 6.66175C29.0096 7.26467 33.2089 11.4734 33.8164 16.8931C33.8978 17.6192 34.5069 18.1672 35.2339 18.1672C35.2887 18.1672 35.3418 18.1639 35.3966 18.1572C35.7767 18.1156 36.1153 17.9274 36.3543 17.6276C36.5917 17.3278 36.6996 16.9547 36.6564 16.5733C35.8995 9.81126 30.6661 4.5632 23.9255 3.81204Z" fill="#1777E5"/>
</g>
<path fill-rule="evenodd" clip-rule="evenodd" d="M18.3863 22.0855C25.0347 28.7321 26.543 21.0427 30.7761 25.2729C34.8572 29.3528 37.2027 30.1702 32.0321 35.3394C31.3844 35.8599 27.2694 42.1219 12.8077 27.6643C-1.65576 13.2048 4.60268 9.08558 5.12332 8.43809C10.3065 3.25459 11.1098 5.61382 15.1909 9.69372C19.424 13.9257 11.7378 15.4389 18.3863 22.0855Z" fill="#1777E5"/>
</svg>
