<svg width="200" height="96" viewBox="0 0 200 96" fill="none" xmlns="http://www.w3.org/2000/svg">
<g clip-path="url(#clip0_2060_36690)">
<path d="M63.5503 38.0126H71.1724C76.0318 38.0126 80.046 40.8242 80.046 47.2437V48.5926C80.046 55.0609 76.2918 57.9699 71.3187 57.9699H63.5503V38.0126ZM67.8083 41.6368V54.3295H71.0749C73.8377 54.3295 75.6905 52.5256 75.6905 48.5113V47.455C75.6905 43.4407 73.7402 41.6368 70.9287 41.6368H67.8083ZM82.305 41.8318H85.7179L86.2705 45.586C86.9205 43.0344 88.5782 41.6693 91.5848 41.6693H92.6412V45.976H90.886C87.4243 45.976 86.5792 47.1787 86.5792 50.5916V58.0187H82.37V41.8318H82.305ZM93.4863 50.2503V49.7952C93.4863 44.3834 96.948 41.4255 101.661 41.4255C106.472 41.4255 109.836 44.3834 109.836 49.7952V50.2503C109.836 55.5647 106.569 58.425 101.661 58.425C96.4441 58.3762 93.4863 55.5809 93.4863 50.2503ZM105.529 50.2015V49.7952C105.529 46.7886 104.018 44.9847 101.612 44.9847C99.2557 44.9847 97.6955 46.6424 97.6955 49.7952V50.2015C97.6955 53.1106 99.207 54.7683 101.612 54.7683C104.018 54.7196 105.529 53.1106 105.529 50.2015ZM112.046 41.8318H115.556L115.963 44.8872C116.808 42.8394 118.612 41.4255 121.277 41.4255C125.389 41.4255 128.103 44.3834 128.103 49.8602V50.3153C128.103 55.6297 125.096 58.4412 121.277 58.4412C118.726 58.4412 116.97 57.2874 116.109 55.4346V63.6094H111.997L112.046 41.8318ZM123.829 50.2015V49.844C123.829 46.6261 122.171 45.0334 119.961 45.0334C117.604 45.0334 116.044 46.8374 116.044 49.844V50.1528C116.044 53.0131 117.555 54.8171 119.912 54.8171C122.333 54.7683 123.829 53.2244 123.829 50.2015ZM134.327 55.0283L133.97 57.9862H130.362V36.4199H134.474V44.6921C135.384 42.5794 137.188 41.4255 139.739 41.4255C143.607 41.4743 146.468 44.1396 146.468 49.5027V50.0065C146.468 55.3696 143.753 58.4412 139.642 58.4412C136.928 58.3762 135.172 57.1248 134.327 55.0283ZM142.145 50.0065V49.6002C142.145 46.6424 140.536 44.9847 138.277 44.9847C135.969 44.9847 134.36 46.8374 134.36 49.649V50.0065C134.36 53.0131 135.92 54.7683 138.228 54.7683C140.698 54.7683 142.145 53.2244 142.145 50.0065ZM148.271 50.2503V49.7952C148.271 44.3834 151.733 41.4255 156.446 41.4255C161.257 41.4255 164.621 44.3834 164.621 49.7952V50.2503C164.621 55.5647 161.306 58.425 156.446 58.425C151.229 58.3762 148.271 55.5809 148.271 50.2503ZM160.347 50.2015V49.7952C160.347 46.7886 158.835 44.9847 156.43 44.9847C154.073 44.9847 152.513 46.6424 152.513 49.7952V50.2015C152.513 53.1106 154.025 54.7683 156.43 54.7683C158.851 54.7196 160.347 53.1106 160.347 50.2015ZM170.13 49.6002L164.458 41.8318H169.318L172.584 46.6911L175.9 41.8318H180.71L174.957 49.5515L181.019 57.9862H176.257L172.552 52.6231L168.944 57.9862H163.971L170.13 49.6002Z" fill="white"/>
<path d="M37.3522 38.0132L27.9261 44.0264L37.3522 50.0396L27.9261 56.0528L18.5 50.0071L27.9261 43.9939L18.5 38.0132L27.9261 32L37.3522 38.0132ZM27.8773 57.9868L37.3035 51.9736L46.7296 57.9868L37.3035 64L27.8773 57.9868ZM37.3522 50.0071L46.7783 43.9939L37.3522 38.0132L46.7296 32L56.1557 38.0132L46.7296 44.0264L56.1557 50.0396L46.7296 56.0528L37.3522 50.0071Z" fill="#0061FF"/>
</g>
<defs>
<clipPath id="clip0_2060_36690">
<rect width="163" height="48" fill="white" transform="translate(18.5 24)"/>
</clipPath>
</defs>
</svg>
