<svg width="200" height="96" viewBox="0 0 200 96" fill="none" xmlns="http://www.w3.org/2000/svg">
<g clip-path="url(#clip0_2060_36537)">
<path fill-rule="evenodd" clip-rule="evenodd" d="M164.509 55.6579C159.075 64.8714 150.469 62.1979 147.884 60.1047C146.784 60.8511 144.855 62.4871 142.283 62.2982C136.805 61.8961 134.843 54.0681 134.843 54.0681C134.883 54.0994 133.212 54.6447 132.308 54.635C132.297 56.9306 130.312 62.4144 124.957 62.3442C118.947 62.2659 117.726 53.3126 117.726 53.3126C117.726 53.3126 117.128 54.143 114.854 54.9702C114.968 53.2065 114.885 62.0757 107.682 62.2061C101.988 62.3093 100.451 53.1745 100.451 53.1745C100.451 53.1745 99.4627 54.2007 97.5483 54.5566C97.67 52.7642 97.4722 62.2363 90.2686 62.2061C85.4004 62.1859 83.7369 56.5791 83.8663 55.8009C84.0314 54.8092 82.221 62.3456 77.4924 62.2282C75.541 62.1709 74.0862 60.758 73.1734 58.8744C71.9513 60.2728 70.177 62.2282 68.1867 62.2282C64.6139 62.2282 63.0388 59.2399 63.3055 50.7049C63.3283 49.6926 63.2552 49.2944 62.2489 49.143C61.6449 49.0422 61.0263 48.8514 60.3718 48.7508C60.1621 49.4508 58.3828 62.0005 52.2648 62.2386C50.2123 62.3186 49.09 60.5405 48.1683 59.2209C46.7555 61.09 44.8904 62.2982 42.2335 62.2982C37.7329 62.2982 34.6665 58.6599 34.6665 54.1718C34.6665 49.6835 37.7329 46.0456 42.2335 46.0456C43.0293 46.0456 43.2526 46.1596 43.9796 46.3717C42.4846 32.7599 46.0152 30.6325 49.1038 30.6325C52.069 30.6325 57.1348 37.5147 50.0068 54.9716C51.5894 60.1785 55.001 59.884 56.6404 49.1652C56.9741 46.9864 56.0819 44.0463 57.4696 43.6359C60.0063 42.886 60.2755 45.136 61.4649 45.5109C62.7226 45.9072 63.4566 45.8685 64.664 46.1206C66.7271 46.5235 67.5322 47.6318 67.2808 50.1002C66.979 53.2235 66.4509 57.7694 68.0609 58.3235C69.2219 58.7259 71.3416 56.3182 71.7136 55.0008C72.0854 53.6834 72.1631 53.2326 72.1961 52.2663C72.2464 50.2011 72.3096 48.6873 72.6617 47.1255C72.8125 46.5212 72.9843 46.121 73.668 46.0936C74.2306 46.0793 75.2595 45.9098 75.7125 46.2624C76.3161 46.7159 76.2407 47.1762 76.1714 48.3875C75.4693 65.6585 80.873 57.0367 82.4842 50.1332C81.9105 42.327 82.3044 30.7755 87.1961 30.5817C89.7402 30.481 90.8649 32.5191 90.9886 34.0403C91.3385 38.3369 89.3784 45.454 86.8006 50.2403C85.3274 60.0065 93.2421 61.9375 94.5078 54.1422C92.437 53.1576 90.1991 49.1724 92.0202 47.2303C93.0421 46.1404 97.2957 47.7062 97.3654 51.1212C99.4519 50.5632 99.7305 49.3851 99.7594 49.5804C99.1858 41.7741 99.7178 30.7756 104.61 30.5818C107.154 30.4811 108.278 32.5192 108.402 34.0404C108.752 38.337 106.792 45.4542 104.214 50.2405C102.741 60.0065 110.656 61.9377 111.921 54.1424C110.388 53.8465 107.152 49.6077 109.019 47.2304C110.017 45.9601 114.255 48.6019 114.729 51.2343C116.734 50.6671 117.006 49.5265 117.035 49.7184C116.461 41.9125 116.993 30.9139 121.885 30.7202C124.429 30.6194 125.553 32.6575 125.677 34.1787C126.027 38.4753 124.067 45.5926 121.489 50.3789C120.016 60.1451 127.931 62.0757 129.197 54.2804C127.09 53.9297 124.095 49.4541 126.505 47.1645C127.468 46.2497 131.147 48.6244 132.008 51.3336C133.205 51.2875 133.95 50.8748 134.109 50.8332C132.199 41.6692 133.621 30.6737 138.884 30.582C141.728 30.5324 144.509 32.1197 143.288 40.838C142.123 49.1563 137.935 52.6472 137.945 52.7006C138.189 53.6971 140.338 62.0371 145.749 57.6366C145.469 57.0023 145.189 56.3543 145.032 55.5692C144.135 50.9963 145.897 45.8311 150.685 44.9963C153.429 44.5181 156.013 45.8538 156.422 48.8651C157.094 53.7926 152.645 57.3611 150.953 58.1352C150.195 57.7047 157.822 62.5964 162.349 52.7933C162.611 52.2336 162.928 52.281 163.338 52.5695C163.627 52.7733 165.276 54.3355 164.509 55.6579ZM45.5073 52.961C45.277 52.2724 44.8043 50.7552 44.6372 50.0978C43.7167 49.2973 43.0596 49.1673 41.8781 49.1673C39.2523 49.1673 37.7068 51.595 37.7068 54.2129C37.7068 56.8305 39.3905 59.2586 42.0163 59.2586C44.2918 59.2586 46.0237 57.7114 46.5521 55.5212C46.1823 54.6673 45.8154 53.8826 45.5073 52.961ZM49.0395 34.2357C47.1945 34.2357 46.5686 38.637 46.69 42.3917C46.7975 45.7114 47.7251 48.6339 48.2063 49.9435C48.3285 50.1076 48.3058 50.0008 48.4148 50.1748C51.6184 43.1557 50.2896 34.2357 49.0395 34.2357ZM87.4596 34.3739C85.075 34.1004 85.0904 44.0341 85.3864 46.2624C86.6249 44.2811 88.7763 34.9074 87.4596 34.3739ZM104.873 34.3739C102.488 34.1004 102.504 44.0341 102.8 46.2624C104.038 44.2811 106.19 34.9074 104.873 34.3739ZM122.148 34.5121C119.763 34.2387 119.779 44.1724 120.075 46.4008C121.313 44.4193 123.465 35.0456 122.148 34.5121ZM139.147 33.7924C135.432 34.5385 136.297 46.9261 136.861 49.0987C141.237 43.0878 141.328 33.5666 139.147 33.7924ZM153.071 49.2727C152.882 48.4829 151.938 48.0607 151.286 48.1648C149.42 48.4195 147.611 50.7429 148.311 54.2801C148.467 55.0679 148.857 55.7931 148.851 55.7689C153.026 52.968 153.381 50.7609 153.071 49.2727ZM74.3994 43.3594C73.8662 43.3595 73.345 43.2015 72.9016 42.9053C72.4583 42.6092 72.1126 42.1882 71.9085 41.6956C71.7044 41.2031 71.651 40.661 71.755 40.1381C71.8589 39.6152 72.1157 39.1348 72.4927 38.7578C72.8696 38.3807 73.3499 38.1239 73.8729 38.0199C74.3958 37.9159 74.9378 37.9692 75.4305 38.1733C75.9231 38.3773 76.344 38.7229 76.6402 39.1662C76.9364 39.6095 77.0945 40.1307 77.0945 40.6639C77.0945 41.0179 77.0249 41.3684 76.8894 41.6954C76.754 42.0224 76.5555 42.3195 76.3052 42.5698C76.0549 42.8202 75.7578 43.0187 75.4308 43.1542C75.1038 43.2897 74.7534 43.3594 74.3994 43.3594Z" fill="white"/>
</g>
<defs>
<clipPath id="clip0_2060_36537">
<rect width="130.667" height="56" fill="white" transform="translate(34.6665 20)"/>
</clipPath>
</defs>
</svg>
