<svg width="200" height="96" viewBox="0 0 200 96" fill="none" xmlns="http://www.w3.org/2000/svg">
<g clip-path="url(#clip0_2060_36688)">
<path d="M59.616 40.7003C54.7353 40.7003 50.9217 44.4054 50.9217 49.3654C50.9217 54.3254 54.6389 57.9988 59.616 57.9988C64.5931 57.9988 68.375 54.262 68.375 49.3337C68.375 44.4371 64.6577 40.7003 59.616 40.7003ZM59.6489 54.4242C56.8695 54.4242 54.8328 52.2656 54.8328 49.3666C54.8328 46.4348 56.8366 44.2774 59.616 44.2774C62.4283 44.2774 64.4638 46.4677 64.4638 49.3666C64.4638 52.2656 62.4283 54.4242 59.6489 54.4242ZM69.4409 44.47H71.8652V57.678H75.7435V41.0223H69.4409V44.47ZM41.1614 44.2761C43.1981 44.2761 44.814 45.5323 45.4275 47.4007H49.5326C48.7886 43.4066 45.4921 40.7003 41.1943 40.7003C36.3136 40.7003 32.5 44.4054 32.5 49.3666C32.5 54.3279 36.2173 58 41.1943 58C45.3958 58 48.7569 55.2938 49.5008 51.2667H45.4275C44.8457 53.1351 43.2298 54.4242 41.1931 54.4242C38.3808 54.4242 36.4099 52.2656 36.4099 49.3666C36.4112 46.4348 38.3503 44.2761 41.1614 44.2761ZM143.13 47.7556L140.286 47.3373C138.929 47.1446 137.959 46.6933 137.959 45.6299C137.959 44.47 139.22 43.8907 140.932 43.8907C142.807 43.8907 144.003 44.6957 144.262 46.0165H148.011C147.59 42.6663 145.004 40.7016 141.03 40.7016C136.925 40.7016 134.21 42.7956 134.21 45.7591C134.21 48.5934 135.988 50.2374 139.575 50.7521L142.419 51.1704C143.809 51.3631 144.585 51.9119 144.585 52.9424C144.585 54.2632 143.228 54.8108 141.353 54.8108C139.058 54.8108 137.765 53.8766 137.571 52.4595H133.757C134.114 55.7133 136.666 58 141.32 58C145.555 58 148.366 56.067 148.366 52.7485C148.366 49.7849 146.33 48.2385 143.13 47.7556ZM73.8044 34.161C72.3824 34.161 71.3155 35.1915 71.3155 36.6087C71.3155 38.0258 72.3812 39.0563 73.8044 39.0563C75.2264 39.0563 76.2936 38.0258 76.2936 36.6087C76.2936 35.1915 75.2264 34.161 73.8044 34.161ZM130.72 46.725C130.72 43.1175 128.522 40.7016 123.868 40.7016C119.473 40.7016 117.016 42.9249 116.531 46.3396H120.377C120.571 45.0189 121.606 43.9237 123.803 43.9237C125.776 43.9237 126.745 44.7932 126.745 45.8567C126.745 47.2422 124.967 47.5958 122.769 47.8215C119.796 48.1434 116.111 49.1739 116.111 53.04C116.111 56.0365 118.342 57.9683 121.897 57.9683C124.676 57.9683 126.422 56.8085 127.295 54.9718C127.424 56.6146 128.653 57.678 130.366 57.678H132.628V54.2315H130.721V46.725H130.72ZM126.906 50.9131C126.906 53.1363 124.967 54.7791 122.607 54.7791C121.152 54.7791 119.924 54.1669 119.924 52.879C119.924 51.2362 121.896 50.785 123.706 50.5923C125.451 50.4313 126.421 50.0447 126.906 49.3032V50.9131ZM106.318 40.7003C104.152 40.7003 102.343 41.6028 101.05 43.1163V34H97.1717V57.678H100.985V55.4877C102.278 57.0658 104.121 58 106.318 58C110.972 58 114.496 54.3279 114.496 49.3666C114.496 44.4054 110.908 40.7003 106.318 40.7003ZM105.737 54.4242C102.957 54.4242 100.921 52.2656 100.921 49.3666C100.921 46.4677 102.989 44.2774 105.768 44.2774C108.581 44.2774 110.551 46.436 110.551 49.3666C110.551 52.2656 108.516 54.4242 105.737 54.4242ZM87.8954 40.7003C85.3746 40.7003 83.7257 41.7309 82.7564 43.1809V41.0223H78.9096V57.6768H82.7879V48.6252C82.7879 46.0799 84.4037 44.2761 86.7955 44.2761C89.026 44.2761 90.415 45.8543 90.415 48.1422V57.678H94.2932V47.8531C94.2947 43.6639 92.1299 40.7003 87.8954 40.7003ZM166.853 48.8191C166.853 44.0517 163.363 40.7016 158.676 40.7016C153.699 40.7016 150.046 44.4383 150.046 49.3666C150.046 54.5535 153.957 58 158.741 58C162.781 58 165.948 55.6157 166.756 52.2339H162.715C162.133 53.7156 160.711 54.5535 158.804 54.5535C156.315 54.5535 154.44 53.0071 154.021 50.3008H166.852V48.8191H166.853ZM154.247 47.53C154.862 45.2103 156.607 44.0835 158.611 44.0835C160.809 44.0835 162.49 45.3396 162.877 47.53H154.247Z" fill="#0052FF"/>
</g>
<defs>
<clipPath id="clip0_2060_36688">
<rect width="135" height="48" fill="white" transform="translate(32.5 24)"/>
</clipPath>
</defs>
</svg>
