<svg width="200" height="96" viewBox="0 0 200 96" fill="none" xmlns="http://www.w3.org/2000/svg">
<g clip-path="url(#clip0_2060_36534)">
<path d="M77.2687 45.238H65.606C64.9377 45.238 64.4364 45.9231 64.6703 46.558L67.4774 53.8263C67.6111 54.1437 67.3437 54.4946 67.0095 54.4779L63.4005 54.244C63.2501 54.2273 63.083 54.3108 62.9828 54.4445L60.1924 58.4044C60.042 58.6216 59.7413 58.7052 59.5074 58.5548L55.397 55.7478C55.2466 55.6308 55.0127 55.6308 54.8624 55.7478L49.148 59.6242C48.7804 59.8748 48.2958 59.5239 48.4128 59.1062L50.0001 53.4085C50.067 53.1746 49.95 52.924 49.7161 52.8404L46.6918 51.604C46.3911 51.4703 46.2908 51.1195 46.508 50.8521L49.1981 47.5438C49.3318 47.3767 49.3485 47.1428 49.2148 46.9757L46.9257 43.7175C46.7252 43.4168 46.909 42.999 47.2933 42.9656L50.7854 42.6983C51.0361 42.6816 51.2533 42.4644 51.2366 42.197L50.9692 37.3014C50.9525 36.9505 51.3034 36.6999 51.6376 36.8335L55.9651 38.6214C56.1489 38.7049 56.3828 38.6548 56.4998 38.4877L59.4906 35.1627C59.7246 34.8953 60.159 34.9789 60.2927 35.2963L62.0805 39.9079C62.3144 40.476 63.0329 40.6932 63.5341 40.3089L70.5518 35.0791C71.3538 34.4943 70.8358 33.2245 69.85 33.3581L65.2384 33.9764C65.0212 34.0098 64.804 33.8761 64.7372 33.6756L62.3144 27.4433C62.0471 26.7916 61.1949 26.6413 60.7271 27.1592L55.4472 32.8903C55.2968 33.0407 55.0963 33.0741 54.9125 33.0073L47.945 30.0665C47.3267 29.8159 46.6417 30.2336 46.6083 30.9187L46.3576 38.0867C46.3409 38.3373 46.1571 38.5378 45.9065 38.5545L39.5572 38.9723C38.8053 39.0224 38.421 39.8578 38.822 40.4593L43.0493 46.6749C43.183 46.842 43.1663 47.0927 43.0159 47.2598L38.7385 52.1888C38.3041 52.6734 38.4879 53.442 39.0894 53.6926L44.0184 55.8146C44.2356 55.9148 44.3526 56.1488 44.2858 56.366L41.1445 68.6468C40.9273 69.5157 41.9131 70.184 42.6316 69.6661L54.4446 61.1948C54.595 61.0778 54.8289 61.0611 54.996 61.1948L60.3762 64.9709C60.8273 65.2884 61.4289 65.1547 61.7296 64.7203L65.0881 59.5573C65.1883 59.4069 65.3721 59.3234 65.5559 59.3568L73.6095 60.3259C74.2611 60.4262 74.9127 59.8748 74.6788 59.2733L71.3371 50.6015C71.2368 50.3676 71.3371 50.1169 71.6211 49.9666L77.7365 47.076C78.6221 46.6248 78.3046 45.238 77.2687 45.238Z" fill="#8039E9"/>
<path d="M160.963 45.255H151.907C151.74 45.255 151.573 45.4054 151.573 45.5892V49.5992C151.573 49.7663 151.723 49.9334 151.907 49.9334H155.783C155.967 49.9334 156.117 50.0838 156.117 50.2676C156.084 52.3227 155.65 56.0488 151.907 56.0488C148.849 56.0488 147.613 52.3562 147.613 48.0119C147.613 42.8656 148.883 39.691 151.723 39.691C153.795 39.691 154.463 41.4454 154.664 42.0803C154.714 42.2307 154.831 42.3143 154.981 42.3143H159.693C159.877 42.3143 160.044 42.1472 160.027 41.9634C159.843 39.3902 157.638 34.8789 151.823 34.8789C147.763 34.8789 143.953 37.3518 142.734 43.4672V35.5974C142.734 35.4971 142.65 35.4303 142.567 35.4303H137.587C137.487 35.4303 137.42 35.5138 137.42 35.5974V49.6661C137.42 49.8332 137.186 49.8833 137.103 49.7329L130.57 35.5305C130.536 35.4637 130.486 35.4303 130.419 35.4303H126.008C125.908 35.4303 125.841 35.5138 125.841 35.5974V43.4839C124.204 38.488 119.759 34.8956 113.978 34.8956C107.529 34.8956 102.75 39.3568 101.664 45.2717H92.6412C92.5409 45.2717 92.4908 45.3552 92.4908 45.4388V49.783C92.4908 49.8833 92.5743 49.9501 92.6412 49.9501H96.8518C96.952 49.9501 97.0021 50.0337 97.0021 50.1005C96.9854 52.1222 96.6346 56.0321 92.7749 56.0321C89.7172 56.0321 88.4974 52.3395 88.4974 47.9952C88.4974 42.8489 89.7673 39.6743 92.6078 39.6743C94.7966 39.6743 95.4315 41.6626 95.5819 42.1806C95.5986 42.2641 95.6655 42.3143 95.7323 42.3143H100.745C100.845 42.3143 100.912 42.2307 100.895 42.1472C100.795 39.6075 98.6229 34.8956 92.6746 34.8956C87.7455 34.8956 83.1841 38.5548 83.1841 47.9618C83.1841 54.4447 85.7238 60.8275 92.7581 60.8275C97.9712 60.8275 101.296 56.8007 102.031 51.9552C103.602 57.1181 108.097 60.8275 113.978 60.8275C119.659 60.8275 124.187 57.2184 125.841 52.1891V60.1591C125.841 60.2594 125.925 60.3262 126.008 60.3262H130.988C131.088 60.3262 131.155 60.2427 131.155 60.1591V46.3243C131.155 46.1573 131.389 46.1071 131.472 46.2575L138.005 60.2427C138.039 60.3095 138.089 60.3429 138.156 60.3429H142.567C142.667 60.3429 142.734 60.2594 142.734 60.1925V52.2893C143.703 57.0346 146.443 60.8776 151.89 60.8776C157.822 60.8776 161.314 55.6478 161.314 49.9334V45.656C161.297 45.3887 161.147 45.255 160.963 45.255ZM113.961 55.6311C109.768 55.6311 106.86 52.4063 106.86 47.8615C106.86 43.3001 109.768 40.092 113.961 40.092C118.139 40.092 121.063 43.3168 121.063 47.8615C121.063 52.4063 118.139 55.6311 113.961 55.6311Z" fill="#3E0075"/>
</g>
<defs>
<clipPath id="clip0_2060_36534">
<rect width="123" height="48" fill="white" transform="translate(38.5 24)"/>
</clipPath>
</defs>
</svg>
