<svg width="200" height="96" viewBox="0 0 200 96" fill="none" xmlns="http://www.w3.org/2000/svg">
<g clip-path="url(#clip0_2080_23301)">
<path d="M58.8433 37.018C56.5436 35.942 54.0848 35.1601 51.5141 34.7148C51.1984 35.2856 50.8296 36.0534 50.5753 36.6641C47.8426 36.2531 45.135 36.2531 42.4526 36.6641C42.1984 36.0534 41.8211 35.2856 41.5026 34.7148C38.9292 35.1601 36.4675 35.9449 34.1679 37.0237C29.5295 44.0328 28.2722 50.8678 28.9009 57.6058C31.9772 59.9032 34.9586 61.2988 37.8897 62.212C38.6134 61.216 39.2589 60.1572 39.8149 59.0413C38.7559 58.639 37.7416 58.1424 36.7833 57.5659C37.0375 57.3775 37.2862 57.1806 37.5265 56.978C43.3719 59.712 49.7231 59.712 55.4986 56.978C55.7417 57.1806 55.9904 57.3775 56.2419 57.5659C55.2807 58.1452 54.2636 58.6418 53.2046 59.0442C53.7607 60.1572 54.4033 61.2189 55.1298 62.2148C58.0637 61.3016 61.0479 59.9061 64.1242 57.6058C64.8619 49.7948 62.8641 43.0225 58.8433 37.018ZM40.6112 53.462C38.8565 53.462 37.4175 51.8239 37.4175 49.829C37.4175 47.8342 38.8258 46.1932 40.6112 46.1932C42.3968 46.1932 43.8357 47.8313 43.805 49.829C43.8078 51.8239 42.3968 53.462 40.6112 53.462ZM52.4139 53.462C50.6591 53.462 49.2201 51.8239 49.2201 49.829C49.2201 47.8342 50.6284 46.1932 52.4139 46.1932C54.1993 46.1932 55.6383 47.8313 55.6076 49.829C55.6076 51.8239 54.1993 53.462 52.4139 53.462Z" fill="white"/>
<path d="M76.4881 41.7303H84.116C85.9548 41.7303 87.5083 42.0243 88.7827 42.6093C90.0537 43.1943 91.0067 44.0105 91.6384 45.0551C92.2695 46.0996 92.588 47.2954 92.588 48.6424C92.588 49.9609 92.2583 51.1567 91.5989 52.2269C90.9396 53.2999 89.9364 54.1475 88.587 54.7725C87.2375 55.3975 85.5662 55.7114 83.5686 55.7114H76.4881V41.7303ZM83.4902 52.1584C84.7281 52.1584 85.6811 51.8416 86.3459 51.2109C87.0111 50.5773 87.3437 49.7155 87.3437 48.6224C87.3437 47.6093 87.0471 46.8016 86.455 46.1966C85.8628 45.5916 84.9658 45.2862 83.7668 45.2862H81.3806V52.1584H83.4902Z" fill="white"/>
<path d="M104.008 55.6944C102.952 55.4147 101.999 55.0095 101.152 54.4758V51.1596C101.792 51.6647 102.65 52.0814 103.726 52.4096C104.801 52.7349 105.841 52.8976 106.847 52.8976C107.316 52.8976 107.671 52.8348 107.911 52.7092C108.152 52.5837 108.272 52.4324 108.272 52.2583C108.272 52.0586 108.208 51.893 108.076 51.7589C107.945 51.6248 107.691 51.5134 107.314 51.4193L104.966 50.8799C103.622 50.5603 102.669 50.1179 102.102 49.55C101.535 48.9849 101.253 48.2429 101.253 47.324C101.253 46.5505 101.499 45.8799 101.996 45.3063C102.491 44.7326 103.195 44.2903 104.108 43.9792C105.022 43.6653 106.089 43.5083 107.316 43.5083C108.411 43.5083 109.414 43.6282 110.328 43.8679C111.242 44.1077 111.996 44.413 112.597 44.7868V47.9233C111.982 47.5494 111.278 47.2555 110.474 47.0328C109.672 46.8131 108.848 46.7047 107.998 46.7047C106.771 46.7047 106.159 46.9187 106.159 47.3439C106.159 47.5437 106.254 47.6921 106.444 47.792C106.634 47.8919 106.983 47.9946 107.489 48.1031L109.445 48.4627C110.722 48.6881 111.675 49.0848 112.301 49.6499C112.927 50.215 113.24 51.0511 113.24 52.1584C113.24 53.3713 112.723 54.3331 111.686 55.0466C110.649 55.76 109.18 56.1168 107.274 56.1168C106.154 56.1139 105.064 55.9741 104.008 55.6944Z" fill="white"/>
<path d="M117.856 55.2747C116.736 54.7153 115.89 53.9562 115.325 52.9973C114.761 52.0384 114.476 50.9597 114.476 49.761C114.476 48.5624 114.769 47.4894 115.356 46.5447C115.943 45.6001 116.803 44.8581 117.938 44.3187C119.072 43.7793 120.427 43.511 122.006 43.511C123.962 43.511 125.585 43.9306 126.876 44.7696V48.4254C126.421 48.1058 125.89 47.8461 125.283 47.6463C124.677 47.4465 124.029 47.3466 123.336 47.3466C122.123 47.3466 121.176 47.5721 120.492 48.0259C119.807 48.4796 119.464 49.0704 119.464 49.8038C119.464 50.523 119.796 51.1109 120.461 51.5733C121.126 52.0327 122.09 52.2639 123.355 52.2639C124.007 52.2639 124.649 52.1668 125.283 51.9756C125.915 51.7816 126.46 51.5447 126.915 51.265V54.801C125.482 55.68 123.82 56.1194 121.928 56.1194C120.335 56.1138 118.977 55.8341 117.856 55.2747Z" fill="white"/>
<path d="M131.755 55.2749C130.626 54.7156 129.765 53.9507 129.173 52.9776C128.581 52.0044 128.282 50.9199 128.282 49.7213C128.282 48.5227 128.578 47.4525 129.173 46.5136C129.768 45.5746 130.623 44.8383 131.746 44.3046C132.867 43.7709 134.205 43.5055 135.756 43.5055C137.307 43.5055 138.645 43.7709 139.766 44.3046C140.886 44.8383 141.741 45.5689 142.328 46.5021C142.915 47.4354 143.208 48.5055 143.208 49.7185C143.208 50.9171 142.915 52.0016 142.328 52.9747C141.741 53.9479 140.883 54.7127 139.754 55.2721C138.626 55.8315 137.293 56.1111 135.753 56.1111C134.214 56.1111 132.881 55.8343 131.755 55.2749ZM137.698 51.7304C138.173 51.2453 138.413 50.6032 138.413 49.8041C138.413 49.005 138.176 48.3686 137.698 47.8976C137.223 47.4239 136.574 47.187 135.753 47.187C134.918 47.187 134.264 47.4239 133.786 47.8976C133.311 48.3714 133.074 49.005 133.074 49.8041C133.074 50.6032 133.311 51.2453 133.786 51.7304C134.261 52.2156 134.918 52.461 135.753 52.461C136.574 52.4582 137.223 52.2156 137.698 51.7304Z" fill="white"/>
<path d="M154.96 44.2475V48.5626C154.463 48.2287 153.82 48.0631 153.024 48.0631C151.981 48.0631 151.177 48.3857 150.618 49.0306C150.056 49.6756 149.777 50.6802 149.777 52.0386V55.7144H144.985V44.0278H149.679V47.7435C149.939 46.3851 150.361 45.3834 150.942 44.7355C151.521 44.0906 152.269 43.7681 153.18 43.7681C153.87 43.7681 154.463 43.9279 154.96 44.2475Z" fill="white"/>
<path d="M170.882 41.3307V55.7143H166.089V53.0973C165.684 54.0819 165.07 54.8325 164.243 55.3461C163.415 55.857 162.393 56.1139 161.18 56.1139C160.096 56.1139 159.152 55.8456 158.344 55.3062C157.537 54.7668 156.914 54.0277 156.475 53.0887C156.039 52.1498 155.818 51.0882 155.818 49.901C155.804 48.6767 156.036 47.5779 156.514 46.6047C156.989 45.6315 157.662 44.8724 158.529 44.3273C159.395 43.7822 160.384 43.5083 161.493 43.5083C163.776 43.5083 165.307 44.5214 166.089 46.5448V41.3307H170.882ZM165.374 51.6504C165.863 51.1652 166.106 50.5345 166.106 49.764C166.106 49.0191 165.869 48.4112 165.394 47.9461C164.919 47.4809 164.268 47.2468 163.449 47.2468C162.642 47.2468 161.996 47.4837 161.513 47.9574C161.029 48.4312 160.789 49.0448 160.789 49.8039C160.789 50.5631 161.029 51.1824 161.513 51.6618C161.996 52.1412 162.633 52.381 163.43 52.381C164.237 52.3781 164.885 52.1355 165.374 51.6504Z" fill="white"/>
<path d="M96.6262 45.2718C97.9454 45.2718 99.0153 44.2905 99.0153 43.08C99.0153 41.8695 97.9454 40.8882 96.6262 40.8882C95.3064 40.8882 94.237 41.8695 94.237 43.08C94.237 44.2905 95.3064 45.2718 96.6262 45.2718Z" fill="white"/>
<path d="M94.2349 46.7817C95.6988 47.4266 97.5152 47.4551 99.0127 46.7817V55.7771H94.2349V46.7817Z" fill="white"/>
</g>
<defs>
<clipPath id="clip0_2080_23301">
<rect width="142.5" height="40" fill="white" transform="translate(28.75 28)"/>
</clipPath>
</defs>
</svg>
