<svg width="200" height="96" viewBox="0 0 200 96" fill="none" xmlns="http://www.w3.org/2000/svg">
<g clip-path="url(#clip0_2080_23297)">
<path fill-rule="evenodd" clip-rule="evenodd" d="M159.457 55.9808C159.533 56.8503 160.228 57.9572 161.434 57.9572H162.138C162.412 57.9572 162.636 57.7332 162.636 57.4597V41.9539H162.633C162.619 41.6927 162.403 41.4835 162.138 41.4835H159.954C159.69 41.4835 159.474 41.6927 159.46 41.9539H159.457V43.2139C158.118 41.564 156.008 40.8792 153.892 40.8792C149.081 40.8792 145.182 44.7816 145.182 49.5958C145.182 54.4103 149.081 58.3128 153.892 58.3128C156.008 58.3128 158.315 57.4916 159.457 55.9789V55.9808ZM153.9 55.2622C150.841 55.2622 148.361 52.7255 148.361 49.5958C148.361 46.4667 150.841 43.93 153.9 43.93C156.96 43.93 159.44 46.4667 159.44 49.5958C159.44 52.7255 156.96 55.2622 153.9 55.2622Z" fill="white"/>
<path fill-rule="evenodd" clip-rule="evenodd" d="M142.419 48.4905C142.419 43.9677 139.568 40.9165 135.022 40.9165C132.852 40.9165 131.073 42.1725 130.444 43.2514C130.308 42.4078 129.861 41.521 128.473 41.521H127.766C127.492 41.521 127.269 41.7452 127.269 42.0187V56.0196C127.269 56.02 127.269 56.0211 127.269 56.0218V57.5257H127.271C127.286 57.7865 127.502 57.996 127.766 57.996H129.95C129.984 57.996 130.017 57.992 130.048 57.9858C130.063 57.983 130.076 57.9773 130.09 57.9733C130.107 57.9683 130.124 57.9645 130.139 57.9581C130.158 57.9501 130.176 57.9393 130.194 57.9291C130.203 57.9237 130.212 57.9199 130.221 57.9143C130.243 57.9002 130.263 57.8832 130.282 57.866C130.285 57.8628 130.289 57.8606 130.292 57.8577C130.314 57.8366 130.334 57.8135 130.351 57.7894C130.406 57.7143 130.439 57.6233 130.445 57.5257H130.448V48.3661C130.448 45.937 132.415 43.9677 134.843 43.9677C137.27 43.9677 139.238 45.937 139.238 48.3661L139.24 56.0223L139.24 56.0196C139.24 56.0264 139.242 56.0333 139.242 56.0406V57.5257H139.244C139.259 57.7865 139.475 57.996 139.739 57.996H141.924C141.957 57.996 141.99 57.992 142.021 57.9858C142.034 57.9835 142.046 57.9782 142.059 57.9747C142.077 57.9695 142.095 57.965 142.112 57.9581C142.13 57.9507 142.147 57.9404 142.163 57.9308C142.174 57.9251 142.185 57.9208 142.194 57.9143C142.215 57.901 142.233 57.8849 142.251 57.8691C142.256 57.8648 142.261 57.8616 142.265 57.8573C142.286 57.8373 142.305 57.8157 142.321 57.7931C142.323 57.7914 142.324 57.79 142.325 57.7883C142.379 57.7139 142.412 57.624 142.418 57.527C142.418 57.5263 142.418 57.5257 142.418 57.5257H142.421L142.419 48.4905Z" fill="white"/>
<path fill-rule="evenodd" clip-rule="evenodd" d="M119.668 55.9808C119.744 56.8503 120.44 57.9571 121.645 57.9571H122.35C122.623 57.9571 122.847 57.7331 122.847 57.4596V41.9539H122.844C122.83 41.6927 122.614 41.4835 122.35 41.4835H120.165C119.901 41.4835 119.685 41.6927 119.67 41.9539H119.668V43.2139C118.329 41.564 116.219 40.8792 114.103 40.8792C109.292 40.8792 105.393 44.7816 105.393 49.5959C105.393 54.4103 109.292 58.3129 114.103 58.3129C116.219 58.3129 118.525 57.4917 119.668 55.9788L119.668 55.9808ZM114.111 55.2621C111.052 55.2621 108.572 52.7255 108.572 49.5959C108.572 46.4667 111.052 43.93 114.111 43.93C117.171 43.93 119.65 46.4667 119.65 49.5959C119.65 52.7255 117.171 55.2621 114.111 55.2621Z" fill="white"/>
<path fill-rule="evenodd" clip-rule="evenodd" d="M92.4739 53.76C93.9323 54.7712 95.5242 55.2623 97.054 55.2623C98.5114 55.2623 100.018 54.5062 100.018 53.19C100.018 51.433 96.735 51.1596 94.6723 50.458C92.6091 49.7564 90.8322 48.306 90.8322 45.9573C90.8322 42.3633 94.0321 40.8789 97.0187 40.8789C98.9109 40.8789 100.863 41.5034 102.129 42.3979C102.565 42.7285 102.3 43.108 102.3 43.108L101.091 44.8351C100.955 45.0296 100.718 45.1977 100.377 44.9871C100.036 44.7767 98.8407 43.9298 97.0187 43.9298C95.1964 43.9298 94.0988 44.772 94.0988 45.8158C94.0988 47.0675 95.5254 47.4612 97.1963 47.8878C100.108 48.6733 103.285 49.6175 103.285 53.19C103.285 56.3566 100.325 58.3136 97.054 58.3136C94.5752 58.3136 92.4648 57.6064 90.6948 56.3065C90.326 55.9372 90.5835 55.5942 90.5835 55.5942L91.7859 53.876C92.0306 53.5547 92.339 53.6667 92.4739 53.76Z" fill="white"/>
<path fill-rule="evenodd" clip-rule="evenodd" d="M84.0752 55.9808C84.1515 56.8503 84.8471 57.9571 86.052 57.9571H86.7571C87.0304 57.9571 87.2544 57.7331 87.2544 57.4596V41.9539H87.2513C87.237 41.6927 87.0212 41.4835 86.7571 41.4835H84.5725C84.3083 41.4835 84.0925 41.6927 84.0778 41.9539H84.0752V43.2139C82.7367 41.564 80.6263 40.8792 78.5101 40.8792C73.6998 40.8792 69.8003 44.7816 69.8003 49.5959C69.8003 54.4103 73.6998 58.3129 78.5101 58.3129C80.6263 58.3129 82.9326 57.4917 84.0748 55.9788L84.0752 55.9808ZM78.5186 55.2621C75.4593 55.2621 72.9792 52.7255 72.9792 49.5959C72.9792 46.4667 75.4593 43.93 78.5186 43.93C81.5778 43.93 84.0577 46.4667 84.0577 49.5959C84.0577 52.7255 81.5778 55.2621 78.5186 55.2621Z" fill="white"/>
<path fill-rule="evenodd" clip-rule="evenodd" d="M57.5895 50.1881C54.3525 50.1881 51.7282 52.8123 51.7282 56.0497C51.7282 59.2868 54.3525 61.911 57.5895 61.911C60.8267 61.911 63.4509 59.2868 63.4509 56.0497C63.4509 52.8123 60.8267 50.1881 57.5895 50.1881ZM42.3613 50.1886C39.1242 50.1886 36.5 52.8123 36.5 56.0497C36.5 59.2868 39.1242 61.911 42.3613 61.911C45.5986 61.911 48.223 59.2868 48.223 56.0497C48.223 52.8123 45.5986 50.1886 42.3613 50.1886ZM55.8367 42.8612C55.8367 46.0986 53.2126 48.7231 49.9755 48.7231C46.7382 48.7231 44.1141 46.0986 44.1141 42.8612C44.1141 39.6245 46.7382 37 49.9755 37C53.2126 37 55.8367 39.6245 55.8367 42.8612Z" fill="#F06A6A"/>
</g>
<defs>
<clipPath id="clip0_2080_23297">
<rect width="127" height="48" fill="white" transform="translate(36.5 24)"/>
</clipPath>
</defs>
</svg>
