<svg width="200" height="96" viewBox="0 0 200 96" fill="none" xmlns="http://www.w3.org/2000/svg">
<g clip-path="url(#clip0_2060_36687)">
<path d="M51.0727 27.0791C39.4747 27.0791 30.0723 36.4813 30.0723 48.0792C30.0723 59.6777 39.4747 69.0791 51.0727 69.0791C62.6719 69.0791 72.0733 59.6777 72.0733 48.0792C72.0733 36.482 62.6719 27.0801 51.0724 27.0801L51.0727 27.0791ZM60.7033 57.3673C60.3271 57.9842 59.5196 58.1798 58.9028 57.8011C53.9721 54.7894 47.765 54.1073 40.455 55.7774C39.7506 55.9379 39.0484 55.4966 38.8879 54.7919C38.7267 54.0872 39.1663 53.3851 39.8724 53.2246C47.872 51.3969 54.7339 52.1839 60.2695 55.5668C60.8864 55.9454 61.082 56.7504 60.7033 57.3673ZM63.2737 51.6492C62.7997 52.4196 61.7916 52.6628 61.0218 52.1889C55.3769 48.7192 46.7722 47.7144 40.0954 49.7411C39.2295 50.0026 38.3149 49.5146 38.0521 48.6502C37.7913 47.7843 38.2795 46.8715 39.1439 46.6082C46.7707 44.2941 56.2521 45.415 62.7345 49.3985C63.5044 49.8725 63.7477 50.8806 63.2737 51.6495V51.6492ZM63.4944 45.6949C56.726 41.6748 45.5592 41.3051 39.097 43.2664C38.0593 43.5811 36.962 42.9953 36.6475 41.9576C36.333 40.9194 36.9183 39.8228 37.9568 39.5073C45.3749 37.2554 57.7066 37.6905 65.4991 42.3165C66.4344 42.8704 66.7404 44.0759 66.1862 45.008C65.6345 45.9414 64.4257 46.2491 63.4954 45.6949H63.4944ZM87.2074 46.4653C83.5812 45.6006 82.9367 44.9937 82.9367 43.7186C82.9367 42.5139 84.0702 41.7031 85.7579 41.7031C87.3929 41.7031 89.0129 42.3187 90.7132 43.5861C90.7633 43.6245 90.8285 43.6398 90.8912 43.6298C90.9564 43.6203 91.0116 43.5854 91.0492 43.533L92.8196 41.0373C92.8924 40.9345 92.8723 40.7928 92.7745 40.7143C90.7508 39.0911 88.4738 38.3019 85.8106 38.3019C81.896 38.3019 79.1601 40.6514 79.1601 44.013C79.1601 47.6178 81.5199 48.8942 85.5974 49.8795C89.0656 50.6787 89.6524 51.3483 89.6524 52.545C89.6524 53.8716 88.4687 54.6966 86.5629 54.6966C84.4464 54.6966 82.7185 53.9819 80.7876 52.3118C80.74 52.2691 80.6748 52.2516 80.6146 52.2541C80.5494 52.2591 80.4917 52.2892 80.4516 52.3368L78.4655 54.6991C78.3827 54.7994 78.3927 54.9449 78.488 55.0301C80.7349 57.0363 83.4984 58.0945 86.4826 58.0945C90.7006 58.0945 93.4265 55.79 93.4265 52.2215C93.434 49.2105 91.631 47.5428 87.2149 46.4685L87.2074 46.4653ZM102.971 42.8893C101.143 42.8893 99.6431 43.6095 98.4043 45.0853V43.4242C98.4043 43.293 98.299 43.1862 98.1686 43.1862H94.9211C94.7907 43.1862 94.6854 43.293 94.6854 43.4242V61.8812C94.6854 62.0116 94.7907 62.1194 94.9211 62.1194H98.1686C98.299 62.1194 98.4043 62.0116 98.4043 61.8812V56.0558C99.6431 57.4425 101.143 58.1221 102.971 58.1221C106.369 58.1221 109.809 55.5066 109.809 50.5064C109.814 45.5053 106.374 42.889 102.973 42.889L102.971 42.8893ZM106.033 50.5064C106.033 53.0515 104.465 54.8295 102.219 54.8295C99.9992 54.8295 98.3241 52.9713 98.3241 50.5064C98.3241 48.0414 99.9992 46.1836 102.219 46.1836C104.428 46.1834 106.033 48.001 106.033 50.5062V50.5064ZM118.624 42.8893C114.248 42.8893 110.82 46.2586 110.82 50.5609C110.82 54.817 114.226 58.1497 118.571 58.1497C122.962 58.1497 126.4 54.7919 126.4 50.5064C126.4 46.2356 122.985 42.8898 118.624 42.8898V42.8893ZM118.624 54.8546C116.297 54.8546 114.541 52.9838 114.541 50.5052C114.541 48.0153 116.237 46.2085 118.571 46.2085C120.914 46.2085 122.679 48.0785 122.679 50.5596C122.679 53.049 120.974 54.8546 118.624 54.8546ZM135.744 43.1862H132.171V39.5334C132.171 39.4025 132.065 39.2957 131.935 39.2957H128.688C128.557 39.2957 128.449 39.4025 128.449 39.5334V43.1862H126.889C126.759 43.1862 126.654 43.293 126.654 43.4242V46.2145C126.654 46.3454 126.759 46.4525 126.889 46.4525H128.449V53.6734C128.449 56.5899 129.901 58.0695 132.768 58.0695C133.931 58.0695 134.897 57.8287 135.807 57.3121C135.882 57.272 135.927 57.1918 135.927 57.1065V54.4483C135.927 54.3681 135.885 54.2903 135.814 54.2477C135.744 54.2026 135.656 54.2001 135.584 54.2377C134.959 54.5511 134.355 54.6966 133.678 54.6966C132.637 54.6966 132.171 54.2226 132.171 53.1644V46.4537H135.744C135.875 46.4537 135.98 46.3469 135.98 46.2157V43.4257C135.985 43.2945 135.88 43.1877 135.747 43.1877L135.744 43.1862ZM148.193 43.2005V42.7518C148.193 41.432 148.699 40.8435 149.833 40.8435C150.51 40.8435 151.054 40.9779 151.663 41.181C151.738 41.2046 151.816 41.1928 151.876 41.1479C151.939 41.103 151.974 41.031 151.974 40.9548V38.2189C151.974 38.1143 151.909 38.0218 151.806 37.9909C151.164 37.7996 150.342 37.6032 149.108 37.6032C146.111 37.6032 144.524 39.2919 144.524 42.485V43.1721H142.964C142.834 43.1721 142.726 43.279 142.726 43.4099V46.2145C142.726 46.3454 142.834 46.4525 142.964 46.4525H144.524V57.588C144.524 57.7209 144.632 57.8262 144.762 57.8262H148.007C148.14 57.8262 148.245 57.7209 148.245 57.588V46.4532H151.277L155.921 57.588C155.395 58.7566 154.876 58.9898 154.168 58.9898C153.597 58.9898 152.992 58.8193 152.378 58.4807C152.32 58.4506 152.25 58.4456 152.19 58.4632C152.127 58.4858 152.075 58.5309 152.049 58.5911L150.949 61.006C150.896 61.1214 150.941 61.2543 151.051 61.3145C152.2 61.9364 153.236 62.2022 154.517 62.2022C156.914 62.2022 158.241 61.0837 159.407 58.0795L165.039 43.5255C165.07 43.4522 165.059 43.3695 165.014 43.3045C164.972 43.2401 164.899 43.2012 164.821 43.2012H161.441C161.338 43.2012 161.248 43.2657 161.215 43.3607L157.752 53.2496L153.96 43.3542C153.925 43.2622 153.837 43.2012 153.74 43.2012H148.193V43.2005ZM140.975 43.1862H137.728C137.597 43.1862 137.49 43.293 137.49 43.4242V57.588C137.49 57.7209 137.597 57.8262 137.728 57.8262H140.975C141.106 57.8262 141.214 57.7209 141.214 57.588V43.4252C141.214 43.294 141.108 43.1872 140.975 43.1872V43.1862ZM139.37 36.7366C138.084 36.7366 137.041 37.7778 137.041 39.064C137.041 40.3509 138.084 41.3934 139.37 41.3934C140.657 41.3934 141.698 40.3509 141.698 39.064C141.698 37.778 140.654 36.7366 139.37 36.7366ZM167.813 47.7404C166.529 47.7404 165.528 46.7085 165.528 45.4554C165.528 44.2023 166.542 43.1586 167.826 43.1586C169.109 43.1586 170.11 44.1903 170.11 45.4424C170.11 46.6955 169.097 47.7404 167.813 47.7404ZM167.826 43.3858C166.654 43.3858 165.769 44.3161 165.769 45.4554C165.769 46.5942 166.649 47.512 167.813 47.512C168.984 47.512 169.869 46.5824 169.869 45.4424C169.869 44.3036 168.989 43.3858 167.826 43.3858ZM168.332 45.6773L168.979 46.5821H168.432L167.851 45.7521H167.352V46.5821H166.895V44.1837H167.963C168.523 44.1837 168.889 44.4689 168.889 44.9488C168.891 45.3421 168.663 45.5823 168.335 45.6773H168.332ZM167.946 44.5953H167.352V45.3538H167.946C168.242 45.3538 168.42 45.2086 168.42 44.9742C168.42 44.7274 168.242 44.5953 167.946 44.5953Z" fill="#1ED760"/>
</g>
<defs>
<clipPath id="clip0_2060_36687">
<rect width="140" height="48" fill="white" transform="translate(30 24)"/>
</clipPath>
</defs>
</svg>
