<svg width="200" height="96" viewBox="0 0 200 96" fill="none" xmlns="http://www.w3.org/2000/svg">
<g clip-path="url(#clip0_2060_36689)">
<path d="M77.4251 56.4265L78.8932 52.995C80.5006 54.1854 82.5973 54.8155 84.6945 54.8155C86.2323 54.8155 87.2107 54.2205 87.2107 53.3103C87.1756 50.7891 77.9494 52.7499 77.8792 46.4113C77.8441 43.1898 80.7102 40.7037 84.7646 40.7037C87.1756 40.7037 89.5875 41.2992 91.2997 42.665L89.9279 46.1697C88.3525 45.1567 86.4067 44.4504 84.5546 44.4504C83.2965 44.4504 82.4575 45.0454 82.4575 45.8163C82.4925 48.3024 91.7895 46.9366 91.8942 52.995C91.8942 56.2866 89.0978 58.5978 85.1135 58.5978C82.1783 58.5978 79.4871 57.8976 77.4246 56.4265H77.4251ZM135.883 51.7524C135.513 52.4109 134.973 52.9589 134.321 53.3403C133.669 53.7217 132.927 53.9227 132.171 53.9228C129.817 53.9228 127.908 52.0101 127.908 49.6508C127.908 47.2914 129.817 45.3787 132.171 45.3787C132.927 45.3788 133.669 45.5798 134.321 45.9612C134.973 46.3426 135.513 46.8906 135.883 47.5491L139.965 45.2835C138.436 42.5513 135.52 40.7037 132.171 40.7037C127.24 40.7037 123.242 44.7091 123.242 49.6508C123.242 54.5919 127.24 58.5978 132.171 58.5978C135.52 58.5978 138.436 56.7502 139.965 54.018L135.883 51.7524ZM94.5427 58.2474H99.6453V33.2559H94.5432L94.5427 58.2474ZM142.542 33.2559V58.2474H147.644V50.76L153.69 58.2474H160.213L152.524 49.3525L159.653 41.0526H153.411L147.644 47.9531V33.2559H142.542ZM115.366 41.0536V43.0851C114.527 41.6841 112.465 40.7037 110.298 40.7037C105.825 40.7037 102.295 44.661 102.295 49.6332C102.295 54.6055 105.825 58.5978 110.298 58.5978C112.465 58.5978 114.527 57.6174 115.366 56.2164V58.2474H120.468V41.0536H115.366ZM115.366 51.787C114.632 53.0125 113.094 53.9223 111.382 53.9223C109.026 53.9223 107.118 52.0101 107.118 49.6508C107.118 47.2914 109.026 45.3787 111.382 45.3787C113.094 45.3787 114.632 46.3241 115.366 47.5842V51.787Z" fill="white"/>
<path d="M50.4783 32.7031C48.8247 32.7031 47.4844 34.0464 47.4844 35.703C47.484 36.0966 47.5611 36.4864 47.7114 36.8501C47.8616 37.2139 48.082 37.5444 48.3601 37.823C48.6381 38.1016 48.9682 38.3227 49.3317 38.4736C49.6951 38.6246 50.0847 38.7025 50.4783 38.7029H53.4727V35.703C53.4733 34.9081 53.1582 34.1456 52.5967 33.583C52.0352 33.0204 51.2732 32.7039 50.4783 32.7031ZM50.4783 40.7028H42.4941C40.8405 40.7028 39.5002 42.0461 39.5002 43.7032C39.5002 45.3598 40.8405 46.7031 42.4941 46.7031H50.4788C52.1319 46.7031 53.4727 45.3598 53.4727 43.7032C53.4727 42.0461 52.1319 40.7028 50.4783 40.7028Z" fill="#36C5F0"/>
<path d="M69.4411 43.7032C69.4411 42.0461 68.1003 40.7028 66.4467 40.7028C64.7932 40.7028 63.4529 42.0461 63.4529 43.7032V46.7031H66.4467C67.2416 46.7023 68.0036 46.3858 68.5652 45.8233C69.1267 45.2607 69.4418 44.4981 69.4411 43.7032ZM61.4569 43.7032V35.703C61.4576 34.9081 61.1425 34.1456 60.581 33.583C60.0194 33.0204 59.2574 32.7039 58.4626 32.7031C56.809 32.7031 55.4687 34.0464 55.4687 35.703V43.7027C55.4687 45.3603 56.809 46.7036 58.4626 46.7036C59.2574 46.7028 60.0194 46.3863 60.581 45.8238C61.1425 45.2612 61.4576 44.4986 61.4569 43.7037" fill="#2EB67D"/>
<path d="M58.4626 62.7031C59.2575 62.7023 60.0195 62.3858 60.581 61.8233C61.1426 61.2607 61.4577 60.4981 61.457 59.7032C61.4577 58.9084 61.1426 58.1458 60.581 57.5832C60.0195 57.0206 59.2575 56.7041 58.4626 56.7033H55.4688V59.7032C55.4688 61.3598 56.8091 62.7031 58.4626 62.7031ZM58.4626 54.7034H66.4473C68.1004 54.7034 69.4412 53.3601 69.4412 51.703C69.4418 50.9081 69.1268 50.1456 68.5652 49.583C68.0037 49.0204 67.2417 48.7039 66.4468 48.7031H58.4626C56.8091 48.7031 55.4688 50.0464 55.4688 51.703C55.4684 52.0966 55.5455 52.4864 55.6957 52.8501C55.846 53.2139 56.0664 53.5444 56.3444 53.823C56.6224 54.1016 56.9526 54.3227 57.316 54.4736C57.6794 54.6246 58.0691 54.7025 58.4626 54.7029" fill="#ECB22E"/>
<path d="M39.5 51.703C39.4996 52.0966 39.5767 52.4864 39.727 52.8501C39.8772 53.2139 40.0976 53.5444 40.3756 53.823C40.6536 54.1016 40.9838 54.3227 41.3472 54.4736C41.7107 54.6246 42.1003 54.7025 42.4939 54.7029C43.2887 54.7021 44.0508 54.3856 44.6123 53.823C45.1738 53.2605 45.4889 52.4979 45.4883 51.703V48.7031H42.4939C40.8403 48.7031 39.5 50.0464 39.5 51.703ZM47.4842 51.703V59.7027C47.4842 61.3598 48.8245 62.7031 50.4781 62.7031C51.2729 62.7023 52.0349 62.3858 52.5965 61.8233C53.158 61.2607 53.4731 60.4981 53.4724 59.7032V51.703C53.4728 51.3094 53.3957 50.9196 53.2454 50.5558C53.0951 50.192 52.8747 49.8614 52.5966 49.5828C52.3186 49.3043 51.9883 49.0832 51.6248 48.9323C51.2613 48.7813 50.8716 48.7035 50.4781 48.7031C48.8245 48.7031 47.4842 50.0464 47.4842 51.703Z" fill="#E01E5A"/>
</g>
<defs>
<clipPath id="clip0_2060_36689">
<rect width="121" height="48" fill="white" transform="translate(39.5 24)"/>
</clipPath>
</defs>
</svg>
