<svg width="200" height="96" viewBox="0 0 200 96" fill="none" xmlns="http://www.w3.org/2000/svg">
<g clip-path="url(#clip0_2080_23294)">
<path fill-rule="evenodd" clip-rule="evenodd" d="M31.4389 59.8519C28.187 56.6276 28.187 51.4 31.439 48.1757L40.2714 39.4183C43.0205 36.6926 47.2134 36.271 50.409 38.1536C51.3976 38.7359 51.3889 40.0717 50.5759 40.8778C49.7629 41.6839 48.4358 41.6145 47.3323 41.2945C45.9192 40.8847 44.33 41.2323 43.2156 42.3374L34.3831 51.0947C32.7571 52.7069 32.7571 55.3207 34.3831 56.9329C36.0091 58.5451 38.6453 58.5451 40.2713 56.9329L57.936 39.4184C61.1881 36.194 66.4605 36.194 69.7125 39.4183L78.545 48.1757C81.797 51.3999 81.797 56.6276 78.545 59.8519C75.2931 63.0763 70.0206 63.0763 66.7686 59.8519L63.8245 56.9329L60.1443 60.5818C57.3952 63.3074 53.2023 63.729 50.0066 61.8464C49.0182 61.2641 49.0268 59.9283 49.8399 59.1222C50.6528 58.3161 51.9799 58.3854 53.0835 58.7055C54.4966 59.1153 56.0857 58.7676 57.2001 57.6626L60.9855 53.9095C62.5534 52.3549 65.0955 52.3549 66.6635 53.9095L69.7127 56.9329C71.3387 58.545 73.9749 58.545 75.6009 56.9329C77.2269 55.3207 77.2269 52.7069 75.6009 51.0947L66.7683 42.3375C65.1424 40.7253 62.5062 40.7253 60.8802 42.3375L43.2155 59.852C39.9634 63.0764 34.6909 63.0764 31.4389 59.8519Z" fill="white"/>
<path d="M114.245 41.6796C112.199 41.6796 110.648 42.4123 109.625 43.8777C108.726 42.4123 107.3 41.6796 105.409 41.6796C103.456 41.6796 102.029 42.3512 101.099 43.7251V42.107H97.0999V57.3721H101.099V48.7931C101.099 46.5644 102.246 45.3432 104.014 45.3432C105.657 45.3432 106.618 46.4118 106.618 48.2436V57.3721H110.617V48.7931C110.617 46.5644 111.672 45.3432 113.501 45.3432C115.144 45.3432 116.105 46.4118 116.105 48.2436V57.3721H120.105V47.9688C120.105 44.1525 117.81 41.6796 114.245 41.6796Z" fill="white"/>
<path d="M134.973 43.9083C133.764 42.4123 132.089 41.6796 129.919 41.6796C127.842 41.6796 126.075 42.4734 124.587 44.0304C123.129 45.5874 122.385 47.4803 122.385 49.7396C122.385 51.9988 123.129 53.9222 124.587 55.4793C126.075 57.0363 127.842 57.7996 129.919 57.7996C132.089 57.7996 133.764 57.0668 134.973 55.5708V57.3721H138.972V42.107H134.973V43.9083ZM127.594 52.8536C126.788 52.0293 126.385 50.9913 126.385 49.7396C126.385 48.4878 126.788 47.4498 127.594 46.656C128.4 45.8317 129.423 45.4348 130.663 45.4348C131.903 45.4348 132.927 45.8317 133.733 46.656C134.57 47.4498 134.973 48.4878 134.973 49.7396C134.973 50.9913 134.57 52.0293 133.733 52.8536C132.927 53.6475 131.903 54.0443 130.663 54.0443C129.423 54.0443 128.4 53.6475 127.594 52.8536Z" fill="white"/>
<path d="M153.729 44.7325V42.1069H142.103V45.8011H148.334L141.792 54.7465V57.372H154.039V53.6779H147.156L153.729 44.7325Z" fill="white"/>
<path d="M170.762 51.3577C170.855 50.7776 170.917 50.2586 170.917 49.7396C170.917 47.4498 170.174 45.5569 168.685 43.9999C167.228 42.4428 165.336 41.6796 163.073 41.6796C160.686 41.6796 158.702 42.4428 157.182 43.9999C155.663 45.5264 154.888 47.4498 154.888 49.7396C154.888 52.0599 155.663 53.9833 157.214 55.5097C158.764 57.0363 160.81 57.7996 163.383 57.7996C166.359 57.7996 168.623 56.7004 170.142 54.5328L166.918 52.701C166.142 53.7085 164.965 54.2275 163.445 54.2275C161.058 54.2275 159.601 53.2811 159.074 51.3577H170.762ZM159.012 48.3046C159.477 46.3507 160.934 45.2211 163.073 45.2211C164.902 45.2211 166.452 46.2286 166.918 48.3046H159.012Z" fill="white"/>
</g>
<defs>
<clipPath id="clip0_2080_23294">
<rect width="142" height="48" fill="white" transform="translate(29 24)"/>
</clipPath>
</defs>
</svg>
