<svg width="200" height="96" viewBox="0 0 200 96" fill="none" xmlns="http://www.w3.org/2000/svg">
<g clip-path="url(#clip0_2060_36535)">
<path fill-rule="evenodd" clip-rule="evenodd" d="M27.5 62.9361C27.5 64.7945 28.706 65.9998 30.5651 65.9998L39.5207 66C44.8632 66 49.2335 64.1931 52.2047 61.0299H27.5V62.9361ZM39.5207 32.0002L30.5651 32C28.706 32 27.5 33.2055 27.5 35.0639V36.9701H52.2047C49.2335 33.8069 44.8632 32.0002 39.5207 32.0002ZM47.3363 53.8446C47.3363 55.348 48.3161 56.3235 49.8267 56.3235H55.193C55.8013 54.8146 56.21 53.1557 56.4 51.3656H49.8267C48.3161 51.3656 47.3363 52.3409 47.3363 53.8446ZM39.8981 44.1677C39.8981 45.6713 40.8779 46.6466 42.3885 46.6466H56.4C56.21 44.8565 55.8013 43.1977 55.193 41.6888H42.3885C40.8779 41.6888 39.8981 42.664 39.8981 44.1677ZM42.3868 53.8446C42.3868 52.3409 41.407 51.3656 39.8964 51.3656H27.5V56.3235H39.8964C41.407 56.3235 42.3868 55.3482 42.3868 53.8446ZM34.9487 44.1677C34.9487 42.664 33.9689 41.6888 32.4583 41.6888H27.5V46.6466H32.4583C33.9689 46.6466 34.9487 45.6713 34.9487 44.1677Z" fill="#0062FF"/>
<path fill-rule="evenodd" clip-rule="evenodd" d="M90.5228 48.4873C90.9219 46.5471 92.2109 45.5605 93.9052 45.5605C95.5849 45.5605 96.8132 46.5913 97.205 48.4873H90.5228ZM93.9973 42.1992C89.6833 42.1992 87 45.6533 87 49.8782C87 54.2538 89.8673 57.4992 94.1289 57.4992C97.068 57.4992 98.8508 56.1372 99.9542 54.4221L97.2106 52.6656C96.5208 53.6099 95.4171 54.1089 94.2341 54.1089C92.2989 54.1089 91.003 53.2008 90.5613 51.385H97.8028C97.8022 51.3873 97.8017 51.3897 97.801 51.3922L100.441 51.4077C100.541 50.9299 100.6 50.4362 100.6 49.8782C100.6 46.1981 98.3377 42.1992 93.9973 42.1992Z" fill="#0062FF"/>
<path fill-rule="evenodd" clip-rule="evenodd" d="M75.9498 54.0996C73.2955 54.0996 71.6998 52.1967 71.6998 49.8495C71.6998 47.5023 73.3261 45.5996 75.9498 45.5996C78.5736 45.5996 80.1998 47.5023 80.1998 49.8495C80.1998 52.1967 78.6041 54.0996 75.9498 54.0996ZM79.9106 44.446C78.8507 43.173 77.3458 42.3926 75.4779 42.3926C71.3026 42.3926 68.2998 45.7746 68.2998 49.9461C68.2998 54.1178 71.2741 57.4996 75.4779 57.4996C77.3458 57.4996 78.8507 56.7193 79.9106 55.4463V57.1276H83.5998V37.0996H79.9106V44.446Z" fill="#0062FF"/>
<path fill-rule="evenodd" clip-rule="evenodd" d="M111.882 49.5997C112.883 50.2994 113.518 51.3486 113.518 52.733C113.518 55.531 111.632 57.4723 108.106 57.4723C104.788 57.4723 103.008 55.772 102.3 54.0548L105.346 52.2763C105.346 52.2763 105.756 54.132 108.051 54.132C109.473 54.132 109.91 53.5038 109.91 52.9491C109.91 52.6921 109.828 52.2192 108.817 51.8194C106.786 51.0167 102.858 50.6566 102.858 46.9945C102.858 43.9969 105.208 42.3982 108.106 42.3982C110.816 42.3982 112.557 44.0845 113.218 45.3965L110.238 47.1373C110.238 47.1373 109.664 45.6812 108.133 45.6812C106.603 45.6812 106.466 46.5664 106.466 46.8232C106.466 47.5727 107.23 47.8804 108.871 48.3651C109.843 48.6519 110.841 48.9125 111.885 49.5971C111.884 49.598 111.883 49.5989 111.882 49.5997ZM172 46.3379H168.911V52.2762C168.911 54.1321 170.715 53.7323 172 53.7323V57.0726C172 57.0726 171.323 57.1867 170.141 57.1867C167.517 57.1867 165.385 56.3875 165.385 52.2762V46.3379H163.007V42.7977H165.385V38.8008H168.911V42.7977H172V46.3379ZM122.284 53.875C123.747 53.875 124.872 53.146 125.44 51.9501L128.497 53.7806C127.299 55.9744 125.068 57.5008 122.284 57.5008C118.061 57.5008 115.109 54.1263 115.109 49.9638C115.109 45.8011 118.088 42.4267 122.284 42.4267C125.027 42.4267 127.25 43.9281 128.461 46.0928L125.411 47.9651C124.831 46.7848 123.715 46.0524 122.284 46.0524C120.15 46.0524 118.635 47.8036 118.635 49.9638C118.635 52.1239 120.136 53.875 122.284 53.875Z" fill="#0062FF"/>
<path fill-rule="evenodd" clip-rule="evenodd" d="M154.697 53.8349C152.4 53.8349 151.019 52.0442 151.019 49.8354C151.019 47.6266 152.426 45.8361 154.697 45.8361C156.967 45.8361 158.374 47.6266 158.374 49.8354C158.374 52.0442 156.994 53.8349 154.697 53.8349ZM155.135 42.347C159.012 42.347 161.8 45.6998 161.8 49.8354C161.8 53.9712 159.038 57.3238 155.135 57.3238C153.401 57.3238 152.003 56.5502 151.019 55.2881V62.5996H147.594V42.7443H151.019V44.3827C152.003 43.1207 153.401 42.347 155.135 42.347ZM141.009 56.9549V42.7725H144.434V56.9549H141.009ZM134.625 45.1951C135.286 43.4765 136.633 42.4935 138.661 42.4891V46.5736C136.283 46.3333 134.565 47.5964 134.628 50.58C134.627 50.5779 134.626 50.5756 134.625 50.5733V56.9549H131.2V42.7727H134.625V45.1951ZM141.009 40.8798V37.0996H144.547V40.8798H141.009Z" fill="#0062FF"/>
</g>
<defs>
<clipPath id="clip0_2060_36535">
<rect width="145" height="48" fill="white" transform="translate(27.5 24)"/>
</clipPath>
</defs>
</svg>
