<svg width="200" height="96" viewBox="0 0 200 96" fill="none" xmlns="http://www.w3.org/2000/svg">
<path d="M79.2464 45.4076C79.2464 43.346 77.1848 41.1469 73.7488 41.1469C69.9005 41.1469 65.5024 44.0332 64.8152 49.8057C64.128 55.5782 67.7014 58.1896 71.4123 58.1896C75.1232 58.1896 76.91 56.8152 78.8341 54.891C77.1848 52.8294 74.9858 53.7915 74.5735 53.9289C74.1611 54.2038 73.4739 54.4787 72.3744 54.4787C71 54.4787 69.4881 53.7915 69.4881 51.1801C78.5592 50.218 79.2464 47.4692 79.2464 45.4076ZM74.8483 45.6825C74.8483 46.3697 74.5735 47.4692 70.0379 48.019C71 44.5829 72.7867 44.3081 73.6114 44.3081C74.436 44.4455 74.8483 44.9953 74.8483 45.6825ZM59.5924 46.2322C59.5924 46.2322 57.6682 52.2796 57.5308 52.8294C57.5308 52.2796 56.019 41.4218 56.019 41.4218C52.7204 41.4218 50.9336 43.7583 50.109 46.2322C50.109 46.2322 47.7725 52.2796 47.6351 52.8294C47.4976 52.4171 47.2227 46.3697 47.2227 46.3697C46.9479 43.346 44.1991 41.4218 42 41.4218L44.7488 57.9147C48.1848 57.9147 50.109 55.5782 51.0711 53.1043C51.0711 53.1043 53.1327 47.7441 53.2701 47.4692C53.2701 47.7441 54.782 57.9147 54.782 57.9147C58.218 57.9147 60.1422 55.7156 61.1043 53.3791L65.9147 41.4218C62.3412 41.4218 60.5545 43.7583 59.5924 46.2322ZM92.0284 41.0095C89.9668 41.0095 88.3175 42.109 86.9431 43.8957L88.0427 34C85.1564 34 82.9573 36.4739 82.4076 40.0474L80.2085 57.7772C81.8578 57.7772 83.5071 57.3649 84.4692 56.128C85.2938 57.2275 86.5308 58.0521 88.3175 58.0521C93.128 58.0521 96.4265 52.5545 96.4265 47.3318C96.564 42.5213 94.2275 41.0095 92.0284 41.0095ZM91.4787 49.5308C90.9289 52.4171 89.4171 54.3412 87.7678 54.3412C86.2559 54.3412 85.5687 53.654 85.5687 53.654C85.8436 51.1801 86.1185 49.5308 86.6682 48.1564C87.218 46.782 88.5924 44.7204 89.9668 44.7204C91.3412 44.8578 92.0284 46.6446 91.4787 49.5308ZM108.521 41.4218H105.223V41.2844C105.498 39.0853 105.91 37.9858 107.697 37.8483C108.796 37.7109 109.346 37.1611 109.483 36.4739C109.621 35.9242 109.896 34.1374 109.896 34.1374C103.161 34.1374 101.1 37.0237 100.55 41.4218V41.5592H100.412C99.3128 41.5592 98.0758 42.7962 97.9384 44.3081L97.8009 44.8578H100L98.0758 60.2512L97.5261 63C97.6635 63 97.6635 63 97.8009 63C100.962 62.8626 102.886 60.3886 103.436 56.8152L104.948 44.7204H106.047C107.009 44.7204 108.246 43.7583 108.521 41.9716V41.4218ZM125.839 41.1469C121.991 41.1469 118.417 44.0332 117.318 48.4313C116.218 52.8294 117.867 58.1896 123.502 58.1896C129.137 58.1896 132.436 52.6919 132.436 48.1564C132.299 43.6209 129.275 41.1469 125.839 41.1469ZM127.351 49.3934C127.213 51.455 126.251 54.4787 123.777 54.4787C121.303 54.4787 121.716 50.9052 121.853 49.2559C122.128 47.4692 123.09 44.8578 125.289 44.8578C127.351 44.8578 127.626 47.1943 127.351 49.3934ZM151.403 46.2322C151.403 46.2322 149.479 52.2796 149.341 52.8294C149.341 52.2796 147.829 41.4218 147.829 41.4218C144.531 41.4218 142.744 43.7583 141.919 46.2322C141.919 46.2322 139.583 52.2796 139.446 52.8294C139.446 52.4171 139.033 46.3697 139.033 46.3697C138.896 43.346 136.009 41.5592 133.81 41.5592L136.559 58.0521C139.995 58.0521 141.919 55.7156 142.882 53.2417C142.882 53.2417 144.943 47.8815 145.081 47.6066C145.081 47.8815 146.592 58.0521 146.592 58.0521C150.028 58.0521 151.953 55.8531 152.915 53.5166L157.45 41.4218C154.014 41.4218 152.227 43.7583 151.403 46.2322ZM111.682 34.1374L108.934 56.6777L108.384 59.4265C108.521 59.4265 108.521 59.4265 108.659 59.4265C111.682 59.4265 113.882 56.6777 114.156 53.3791L115.806 40.4597C116.218 36.6114 113.744 34.1374 111.682 34.1374Z" fill="white"/>
</svg>
