<svg width="112" height="112" viewBox="0 0 112 112" fill="none" xmlns="http://www.w3.org/2000/svg">
<rect width="112" height="112" rx="56" fill="white"/>
<path d="M32 56C32 51.648 33.072 47.632 35.216 43.952C37.36 40.272 40.272 37.36 43.952 35.216C47.632 33.072 51.648 32 56 32C60.352 32 64.368 33.072 68.048 35.216C71.728 37.36 74.64 40.272 76.784 43.952C78.928 47.632 80 51.648 80 56C80 60.352 78.928 64.368 76.784 68.048C74.64 71.728 71.728 74.64 68.048 76.784C64.368 78.928 60.352 80 56 80C51.648 80 47.632 78.928 43.952 76.784C40.272 74.64 37.36 71.728 35.216 68.048C33.072 64.368 32 60.352 32 56ZM35.984 56C35.984 60.992 37.664 65.392 41.024 69.2C42.56 66.192 44.992 63.328 48.32 60.608C51.648 57.888 54.896 56.176 58.064 55.472C57.584 54.352 57.12 53.344 56.672 52.448C51.168 54.208 45.216 55.088 38.816 55.088C37.568 55.088 36.64 55.072 36.032 55.04C36.032 55.168 36.024 55.328 36.008 55.52C35.992 55.712 35.984 55.872 35.984 56ZM36.608 51.056C37.312 51.12 38.352 51.152 39.728 51.152C45.072 51.152 50.144 50.432 54.944 48.992C52.512 44.672 49.84 41.072 46.928 38.192C44.4 39.472 42.232 41.248 40.424 43.52C38.616 45.792 37.344 48.304 36.608 51.056ZM43.76 71.792C47.376 74.608 51.456 76.016 56 76.016C58.368 76.016 60.72 75.568 63.056 74.672C62.416 69.2 61.168 63.904 59.312 58.784C56.368 59.424 53.4 61.04 50.408 63.632C47.416 66.224 45.2 68.944 43.76 71.792ZM51.104 36.656C53.92 39.568 56.528 43.2 58.928 47.552C63.28 45.728 66.56 43.408 68.768 40.592C65.056 37.52 60.8 35.984 56 35.984C54.368 35.984 52.736 36.208 51.104 36.656ZM60.656 50.96C61.136 51.984 61.68 53.28 62.288 54.848C64.656 54.624 67.232 54.512 70.016 54.512C72 54.512 73.968 54.56 75.92 54.656C75.664 50.304 74.096 46.432 71.216 43.04C69.136 46.144 65.616 48.784 60.656 50.96ZM63.488 58.208C65.12 62.944 66.224 67.808 66.8 72.8C69.328 71.168 71.392 69.072 72.992 66.512C74.592 63.952 75.552 61.184 75.872 58.208C73.536 58.048 71.408 57.968 69.488 57.968C67.728 57.968 65.728 58.048 63.488 58.208Z" fill="#DD3E7B"/>
</svg>
