<svg width="110" height="110" viewBox="0 0 110 110" fill="none" xmlns="http://www.w3.org/2000/svg">
<rect width="110" height="110" rx="55" fill="white"/>
<rect width="110" height="110" rx="55" fill="url(#paint0_radial_5177_842)" fill-opacity="0.08"/>
<rect width="110" height="110" rx="55" fill="url(#paint1_radial_5177_842)" fill-opacity="0.08"/>
<path d="M48.3353 55C48.3353 51.3182 51.3192 48.3328 55.0009 48.3328C58.6827 48.3328 61.6681 51.3182 61.6681 55C61.6681 58.6818 58.6827 61.6672 55.0009 61.6672C51.3192 61.6672 48.3353 58.6818 48.3353 55ZM44.7312 55C44.7312 60.672 49.3289 65.2698 55.0009 65.2698C60.6729 65.2698 65.2707 60.672 65.2707 55C65.2707 49.328 60.6729 44.7302 55.0009 44.7302C49.3289 44.7302 44.7312 49.328 44.7312 55ZM63.2772 44.323C63.277 44.7977 63.4176 45.2618 63.6812 45.6566C63.9447 46.0514 64.3194 46.3591 64.7579 46.5409C65.1964 46.7228 65.6789 46.7705 66.1445 46.6781C66.6101 46.5857 67.0378 46.3572 67.3736 46.0217C67.7094 45.6862 67.9381 45.2587 68.0309 44.7932C68.1237 44.3276 68.0764 43.8451 67.8949 43.4064C67.7134 42.9678 67.406 42.5929 67.0114 42.329C66.6168 42.0651 66.1529 41.9242 65.6782 41.924H65.6772C65.041 41.9243 64.4308 42.1771 63.9808 42.6269C63.5308 43.0767 63.2778 43.6868 63.2772 44.323V44.323ZM46.921 71.2795C44.971 71.1907 43.9112 70.8659 43.2069 70.5915C42.2731 70.228 41.6069 69.795 40.9064 69.0955C40.2059 68.396 39.7723 67.7304 39.4104 66.7966C39.1358 66.0926 38.811 65.0325 38.7224 63.0826C38.6254 60.9744 38.6061 60.3411 38.6061 55.0002C38.6061 49.6592 38.627 49.0277 38.7224 46.9178C38.8112 44.9678 39.1384 43.9098 39.4104 43.2037C39.7739 42.2699 40.2069 41.6037 40.9064 40.9032C41.6059 40.2027 42.2715 39.7691 43.2069 39.4072C43.9109 39.1326 44.971 38.8078 46.921 38.7192C49.0291 38.6222 49.6624 38.6029 55.0009 38.6029C60.3395 38.6029 60.9734 38.6238 63.0833 38.7192C65.0332 38.808 66.0913 39.1352 66.7974 39.4072C67.7311 39.7691 68.3974 40.2037 69.0979 40.9032C69.7983 41.6027 70.2303 42.2699 70.5939 43.2037C70.8684 43.9077 71.1932 44.9678 71.2819 46.9178C71.3788 49.0277 71.3982 49.6592 71.3982 55.0002C71.3982 60.3411 71.3788 60.9726 71.2819 63.0826C71.1931 65.0325 70.8667 66.0923 70.5939 66.7966C70.2303 67.7304 69.7974 68.3966 69.0979 69.0955C68.3983 69.7944 67.7311 70.228 66.7974 70.5915C66.0934 70.8661 65.0332 71.1909 63.0833 71.2795C60.9752 71.3765 60.3419 71.3958 55.0009 71.3958C49.66 71.3958 49.0285 71.3765 46.921 71.2795V71.2795ZM46.7554 35.1211C44.6262 35.2181 43.1714 35.5557 41.9008 36.0501C40.585 36.5606 39.471 37.2456 38.3579 38.357C37.2448 39.4683 36.5616 40.584 36.0511 41.8998C35.5567 43.1712 35.2191 44.6253 35.1221 46.7544C35.0235 48.8869 35.001 49.5686 35.001 55C35.001 60.4314 35.0235 61.1131 35.1221 63.2456C35.2191 65.3749 35.5567 66.8288 36.0511 68.1002C36.5616 69.4152 37.245 70.5322 38.3579 71.643C39.4709 72.7539 40.585 73.4379 41.9008 73.9499C43.1738 74.4443 44.6262 74.7819 46.7554 74.8789C48.8889 74.9758 49.5696 75 55.0009 75C60.4323 75 61.114 74.9774 63.2465 74.8789C65.3758 74.7819 66.8297 74.4443 68.1011 73.9499C69.4161 73.4379 70.5308 72.7544 71.6439 71.643C72.7571 70.5317 73.4388 69.4152 73.9508 68.1002C74.4452 66.8288 74.7844 65.3747 74.8798 63.2456C74.9767 61.1115 74.9993 60.4314 74.9993 55C74.9993 49.5686 74.9767 48.8869 74.8798 46.7544C74.7828 44.6251 74.4452 43.1704 73.9508 41.8998C73.4388 40.5848 72.7553 39.4701 71.6439 38.357C70.5326 37.2438 69.4161 36.5606 68.1027 36.0501C66.8297 35.5557 65.3756 35.2165 63.2481 35.1211C61.1156 35.0242 60.4339 35 55.0025 35C49.5712 35 48.8889 35.0226 46.7554 35.1211Z" fill="url(#paint2_radial_5177_842)"/>
<path d="M48.3353 55C48.3353 51.3182 51.3192 48.3328 55.0009 48.3328C58.6827 48.3328 61.6681 51.3182 61.6681 55C61.6681 58.6818 58.6827 61.6672 55.0009 61.6672C51.3192 61.6672 48.3353 58.6818 48.3353 55ZM44.7312 55C44.7312 60.672 49.3289 65.2698 55.0009 65.2698C60.6729 65.2698 65.2707 60.672 65.2707 55C65.2707 49.328 60.6729 44.7302 55.0009 44.7302C49.3289 44.7302 44.7312 49.328 44.7312 55ZM63.2772 44.323C63.277 44.7977 63.4176 45.2618 63.6812 45.6566C63.9447 46.0514 64.3194 46.3591 64.7579 46.5409C65.1964 46.7228 65.6789 46.7705 66.1445 46.6781C66.6101 46.5857 67.0378 46.3572 67.3736 46.0217C67.7094 45.6862 67.9381 45.2587 68.0309 44.7932C68.1237 44.3276 68.0764 43.8451 67.8949 43.4064C67.7134 42.9678 67.406 42.5929 67.0114 42.329C66.6168 42.0651 66.1529 41.9242 65.6782 41.924H65.6772C65.041 41.9243 64.4308 42.1771 63.9808 42.6269C63.5308 43.0767 63.2778 43.6868 63.2772 44.323V44.323ZM46.921 71.2795C44.971 71.1907 43.9112 70.8659 43.2069 70.5915C42.2731 70.228 41.6069 69.795 40.9064 69.0955C40.2059 68.396 39.7723 67.7304 39.4104 66.7966C39.1358 66.0926 38.811 65.0325 38.7224 63.0826C38.6254 60.9744 38.6061 60.3411 38.6061 55.0002C38.6061 49.6592 38.627 49.0277 38.7224 46.9178C38.8112 44.9678 39.1384 43.9098 39.4104 43.2037C39.7739 42.2699 40.2069 41.6037 40.9064 40.9032C41.6059 40.2027 42.2715 39.7691 43.2069 39.4072C43.9109 39.1326 44.971 38.8078 46.921 38.7192C49.0291 38.6222 49.6624 38.6029 55.0009 38.6029C60.3395 38.6029 60.9734 38.6238 63.0833 38.7192C65.0332 38.808 66.0913 39.1352 66.7974 39.4072C67.7311 39.7691 68.3974 40.2037 69.0979 40.9032C69.7983 41.6027 70.2303 42.2699 70.5939 43.2037C70.8684 43.9077 71.1932 44.9678 71.2819 46.9178C71.3788 49.0277 71.3982 49.6592 71.3982 55.0002C71.3982 60.3411 71.3788 60.9726 71.2819 63.0826C71.1931 65.0325 70.8667 66.0923 70.5939 66.7966C70.2303 67.7304 69.7974 68.3966 69.0979 69.0955C68.3983 69.7944 67.7311 70.228 66.7974 70.5915C66.0934 70.8661 65.0332 71.1909 63.0833 71.2795C60.9752 71.3765 60.3419 71.3958 55.0009 71.3958C49.66 71.3958 49.0285 71.3765 46.921 71.2795V71.2795ZM46.7554 35.1211C44.6262 35.2181 43.1714 35.5557 41.9008 36.0501C40.585 36.5606 39.471 37.2456 38.3579 38.357C37.2448 39.4683 36.5616 40.584 36.0511 41.8998C35.5567 43.1712 35.2191 44.6253 35.1221 46.7544C35.0235 48.8869 35.001 49.5686 35.001 55C35.001 60.4314 35.0235 61.1131 35.1221 63.2456C35.2191 65.3749 35.5567 66.8288 36.0511 68.1002C36.5616 69.4152 37.245 70.5322 38.3579 71.643C39.4709 72.7539 40.585 73.4379 41.9008 73.9499C43.1738 74.4443 44.6262 74.7819 46.7554 74.8789C48.8889 74.9758 49.5696 75 55.0009 75C60.4323 75 61.114 74.9774 63.2465 74.8789C65.3758 74.7819 66.8297 74.4443 68.1011 73.9499C69.4161 73.4379 70.5308 72.7544 71.6439 71.643C72.7571 70.5317 73.4388 69.4152 73.9508 68.1002C74.4452 66.8288 74.7844 65.3747 74.8798 63.2456C74.9767 61.1115 74.9993 60.4314 74.9993 55C74.9993 49.5686 74.9767 48.8869 74.8798 46.7544C74.7828 44.6251 74.4452 43.1704 73.9508 41.8998C73.4388 40.5848 72.7553 39.4701 71.6439 38.357C70.5326 37.2438 69.4161 36.5606 68.1027 36.0501C66.8297 35.5557 65.3756 35.2165 63.2481 35.1211C61.1156 35.0242 60.4339 35 55.0025 35C49.5712 35 48.8889 35.0226 46.7554 35.1211Z" fill="url(#paint3_radial_5177_842)"/>
<path d="M48.3353 55C48.3353 51.3182 51.3192 48.3328 55.0009 48.3328C58.6827 48.3328 61.6681 51.3182 61.6681 55C61.6681 58.6818 58.6827 61.6672 55.0009 61.6672C51.3192 61.6672 48.3353 58.6818 48.3353 55ZM44.7312 55C44.7312 60.672 49.3289 65.2698 55.0009 65.2698C60.6729 65.2698 65.2707 60.672 65.2707 55C65.2707 49.328 60.6729 44.7302 55.0009 44.7302C49.3289 44.7302 44.7312 49.328 44.7312 55ZM63.2772 44.323C63.277 44.7977 63.4176 45.2618 63.6812 45.6566C63.9447 46.0514 64.3194 46.3591 64.7579 46.5409C65.1964 46.7228 65.6789 46.7705 66.1445 46.6781C66.6101 46.5857 67.0378 46.3572 67.3736 46.0217C67.7094 45.6862 67.9381 45.2587 68.0309 44.7932C68.1237 44.3276 68.0764 43.8451 67.8949 43.4064C67.7134 42.9678 67.406 42.5929 67.0114 42.329C66.6168 42.0651 66.1529 41.9242 65.6782 41.924H65.6772C65.041 41.9243 64.4308 42.1771 63.9808 42.6269C63.5308 43.0767 63.2778 43.6868 63.2772 44.323V44.323ZM46.921 71.2795C44.971 71.1907 43.9112 70.8659 43.2069 70.5915C42.2731 70.228 41.6069 69.795 40.9064 69.0955C40.2059 68.396 39.7723 67.7304 39.4104 66.7966C39.1358 66.0926 38.811 65.0325 38.7224 63.0826C38.6254 60.9744 38.6061 60.3411 38.6061 55.0002C38.6061 49.6592 38.627 49.0277 38.7224 46.9178C38.8112 44.9678 39.1384 43.9098 39.4104 43.2037C39.7739 42.2699 40.2069 41.6037 40.9064 40.9032C41.6059 40.2027 42.2715 39.7691 43.2069 39.4072C43.9109 39.1326 44.971 38.8078 46.921 38.7192C49.0291 38.6222 49.6624 38.6029 55.0009 38.6029C60.3395 38.6029 60.9734 38.6238 63.0833 38.7192C65.0332 38.808 66.0913 39.1352 66.7974 39.4072C67.7311 39.7691 68.3974 40.2037 69.0979 40.9032C69.7983 41.6027 70.2303 42.2699 70.5939 43.2037C70.8684 43.9077 71.1932 44.9678 71.2819 46.9178C71.3788 49.0277 71.3982 49.6592 71.3982 55.0002C71.3982 60.3411 71.3788 60.9726 71.2819 63.0826C71.1931 65.0325 70.8667 66.0923 70.5939 66.7966C70.2303 67.7304 69.7974 68.3966 69.0979 69.0955C68.3983 69.7944 67.7311 70.228 66.7974 70.5915C66.0934 70.8661 65.0332 71.1909 63.0833 71.2795C60.9752 71.3765 60.3419 71.3958 55.0009 71.3958C49.66 71.3958 49.0285 71.3765 46.921 71.2795V71.2795ZM46.7554 35.1211C44.6262 35.2181 43.1714 35.5557 41.9008 36.0501C40.585 36.5606 39.471 37.2456 38.3579 38.357C37.2448 39.4683 36.5616 40.584 36.0511 41.8998C35.5567 43.1712 35.2191 44.6253 35.1221 46.7544C35.0235 48.8869 35.001 49.5686 35.001 55C35.001 60.4314 35.0235 61.1131 35.1221 63.2456C35.2191 65.3749 35.5567 66.8288 36.0511 68.1002C36.5616 69.4152 37.245 70.5322 38.3579 71.643C39.4709 72.7539 40.585 73.4379 41.9008 73.9499C43.1738 74.4443 44.6262 74.7819 46.7554 74.8789C48.8889 74.9758 49.5696 75 55.0009 75C60.4323 75 61.114 74.9774 63.2465 74.8789C65.3758 74.7819 66.8297 74.4443 68.1011 73.9499C69.4161 73.4379 70.5308 72.7544 71.6439 71.643C72.7571 70.5317 73.4388 69.4152 73.9508 68.1002C74.4452 66.8288 74.7844 65.3747 74.8798 63.2456C74.9767 61.1115 74.9993 60.4314 74.9993 55C74.9993 49.5686 74.9767 48.8869 74.8798 46.7544C74.7828 44.6251 74.4452 43.1704 73.9508 41.8998C73.4388 40.5848 72.7553 39.4701 71.6439 38.357C70.5326 37.2438 69.4161 36.5606 68.1027 36.0501C66.8297 35.5557 65.3756 35.2165 63.2481 35.1211C61.1156 35.0242 60.4339 35 55.0025 35C49.5712 35 48.8889 35.0226 46.7554 35.1211Z" fill="url(#paint4_radial_5177_842)"/>
<defs>
<radialGradient id="paint0_radial_5177_842" cx="0" cy="0" r="1" gradientUnits="userSpaceOnUse" gradientTransform="translate(66.7128 115.448) scale(113.178 113.173)">
<stop offset="0.64" stop-color="#8C3AAA" stop-opacity="0"/>
<stop offset="1" stop-color="#8C3AAA"/>
</radialGradient>
<radialGradient id="paint1_radial_5177_842" cx="0" cy="0" r="1" gradientUnits="userSpaceOnUse" gradientTransform="translate(14.6147 110.52) scale(143.602 143.596)">
<stop offset="0.09" stop-color="#FA8F21"/>
<stop offset="0.78" stop-color="#D82D7E"/>
</radialGradient>
<radialGradient id="paint2_radial_5177_842" cx="0" cy="0" r="1" gradientUnits="userSpaceOnUse" gradientTransform="translate(40.3152 75.189) scale(52.2165 52.2166)">
<stop offset="0.09" stop-color="#FA8F21"/>
<stop offset="0.78" stop-color="#D82D7E"/>
</radialGradient>
<radialGradient id="paint3_radial_5177_842" cx="0" cy="0" r="1" gradientUnits="userSpaceOnUse" gradientTransform="translate(59.2592 76.981) scale(41.1538 41.1539)">
<stop offset="0.64" stop-color="#8C3AAA" stop-opacity="0"/>
<stop offset="1" stop-color="#8C3AAA"/>
</radialGradient>
<radialGradient id="paint4_radial_5177_842" cx="0" cy="0" r="1" gradientUnits="userSpaceOnUse" gradientTransform="translate(59.2592 76.981) scale(41.1538 41.1539)">
<stop offset="0.64" stop-color="#8C3AAA" stop-opacity="0"/>
<stop offset="1" stop-color="#8C3AAA"/>
</radialGradient>
</defs>
</svg>
