<svg width="40" height="41" viewBox="0 0 40 41" fill="none" xmlns="http://www.w3.org/2000/svg">
<path d="M35.7124 4.76266C34.8791 3.91099 33.6457 3.59599 32.4957 3.92933L5.67907 11.6777C4.46574 12.0143 3.60574 12.976 3.37407 14.196C3.13741 15.4393 3.96407 17.0193 5.04407 17.6793L13.4291 22.7993C14.2891 23.326 15.3991 23.1943 16.1107 22.481L25.7124 12.8793C26.1957 12.3777 26.9957 12.3777 27.4791 12.8793C27.9624 13.361 27.9624 14.146 27.4791 14.646L17.8607 24.2477C17.1474 24.961 17.0141 26.0677 17.5391 26.9293L22.6624 35.346C23.2624 36.3443 24.2957 36.9127 25.4291 36.9127C25.5624 36.9127 25.7124 36.9127 25.8457 36.8943C27.1457 36.7293 28.1791 35.8443 28.5624 34.5943L36.5124 7.97933C36.8624 6.84599 36.5457 5.61266 35.7124 4.76266Z" fill="#1777E5"/>
<path opacity="0.4" d="M15.7524 32.3688C16.239 32.8571 16.239 33.6488 15.7524 34.1371L13.4757 36.4121C13.2324 36.6571 12.9124 36.7788 12.5924 36.7788C12.2724 36.7788 11.9524 36.6571 11.709 36.4121C11.2207 35.9238 11.2207 35.1338 11.709 34.6455L13.984 32.3688C14.4724 31.8821 15.264 31.8821 15.7524 32.3688ZM14.4462 26.0555C14.9329 26.5438 14.9329 27.3355 14.4462 27.8238L12.1695 30.0988C11.9262 30.3438 11.6062 30.4655 11.2862 30.4655C10.9662 30.4655 10.6462 30.3438 10.4029 30.0988C9.91453 29.6105 9.91453 28.8205 10.4029 28.3321L12.6779 26.0555C13.1662 25.5688 13.9579 25.5688 14.4462 26.0555ZM8.17753 24.0681C8.6642 24.5565 8.6642 25.3481 8.17753 25.8365L5.90086 28.1115C5.65753 28.3565 5.33753 28.4781 5.01753 28.4781C4.69753 28.4781 4.37753 28.3565 4.13419 28.1115C3.64586 27.6231 3.64586 26.8331 4.13419 26.3448L6.40919 24.0681C6.89753 23.5815 7.6892 23.5815 8.17753 24.0681Z" fill="#1777E5"/>
</svg>
