<svg width="48" height="48" viewBox="0 0 48 48" fill="none" xmlns="http://www.w3.org/2000/svg">
<rect x="0.5" y="0.5" width="47" height="47" rx="23.5" stroke="#222628"/>
<path d="M16 24C16 22.5493 16.3573 21.2107 17.072 19.984C17.7867 18.7573 18.7573 17.7867 19.984 17.072C21.2107 16.3573 22.5493 16 24 16C25.4507 16 26.7893 16.3573 28.016 17.072C29.2427 17.7867 30.2133 18.7573 30.928 19.984C31.6427 21.2107 32 22.5493 32 24C32 25.4507 31.6427 26.7893 30.928 28.016C30.2133 29.2427 29.2427 30.2133 28.016 30.928C26.7893 31.6427 25.4507 32 24 32C22.5493 32 21.2107 31.6427 19.984 30.928C18.7573 30.2133 17.7867 29.2427 17.072 28.016C16.3573 26.7893 16 25.4507 16 24ZM17.328 24C17.328 25.664 17.888 27.1307 19.008 28.4C19.52 27.3973 20.3307 26.4427 21.44 25.536C22.5493 24.6293 23.632 24.0587 24.688 23.824C24.528 23.4507 24.3733 23.1147 24.224 22.816C22.3893 23.4027 20.4053 23.696 18.272 23.696C17.856 23.696 17.5467 23.6907 17.344 23.68C17.344 23.7227 17.3413 23.776 17.336 23.84C17.3307 23.904 17.328 23.9573 17.328 24ZM17.536 22.352C17.7707 22.3733 18.1173 22.384 18.576 22.384C20.3573 22.384 22.048 22.144 23.648 21.664C22.8373 20.224 21.9467 19.024 20.976 18.064C20.1333 18.4907 19.4107 19.0827 18.808 19.84C18.2053 20.5973 17.7813 21.4347 17.536 22.352ZM19.92 29.264C21.1253 30.2027 22.4853 30.672 24 30.672C24.7893 30.672 25.5733 30.5227 26.352 30.224C26.1387 28.4 25.7227 26.6347 25.104 24.928C24.1227 25.1413 23.1333 25.68 22.136 26.544C21.1387 27.408 20.4 28.3147 19.92 29.264ZM22.368 17.552C23.3067 18.5227 24.176 19.7333 24.976 21.184C26.4267 20.576 27.52 19.8027 28.256 18.864C27.0187 17.84 25.6 17.328 24 17.328C23.456 17.328 22.912 17.4027 22.368 17.552ZM25.552 22.32C25.712 22.6613 25.8933 23.0933 26.096 23.616C26.8853 23.5413 27.744 23.504 28.672 23.504C29.3333 23.504 29.9893 23.52 30.64 23.552C30.5547 22.1013 30.032 20.8107 29.072 19.68C28.3787 20.7147 27.2053 21.5947 25.552 22.32ZM26.496 24.736C27.04 26.3147 27.408 27.936 27.6 29.6C28.4427 29.056 29.1307 28.3573 29.664 27.504C30.1973 26.6507 30.5173 25.728 30.624 24.736C29.8453 24.6827 29.136 24.656 28.496 24.656C27.9093 24.656 27.2427 24.6827 26.496 24.736Z" fill="#1777E5"/>
</svg>
