<svg width="48" height="48" viewBox="0 0 48 48" fill="none" xmlns="http://www.w3.org/2000/svg">
<rect x="0.5" y="0.5" width="47" height="47" rx="23.5" stroke="#222628"/>
<path d="M21.0076 30.5431C27.0609 30.5431 30.3713 25.5184 30.3713 21.1612C30.3713 21.0185 30.3684 20.8764 30.362 20.735C31.0061 20.268 31.562 19.6898 32.0036 19.0275C31.4139 19.2902 30.7793 19.4669 30.1137 19.5467C30.7931 19.1384 31.3147 18.4926 31.5609 17.7229C30.9148 18.1068 30.2081 18.3775 29.4711 18.5232C28.8705 17.8823 28.0156 17.4814 27.0688 17.4814C25.2514 17.4814 23.7776 18.9581 23.7776 20.7784C23.7776 21.0371 23.8066 21.2888 23.863 21.5302C21.1278 21.3923 18.7024 20.0802 17.0792 18.0851C16.7869 18.5883 16.6331 19.1602 16.6336 19.7424C16.6336 20.8864 17.2146 21.8963 18.0981 22.4872C17.5755 22.4712 17.0643 22.3297 16.6076 22.0747C16.6072 22.0886 16.6072 22.1021 16.6072 22.1169C16.6072 23.7137 17.7415 25.047 19.2474 25.3492C18.9646 25.4263 18.6727 25.4653 18.3796 25.4652C18.1679 25.4652 17.9616 25.4443 17.7611 25.4057C18.1801 26.7159 19.395 27.6693 20.8354 27.6959C19.709 28.5805 18.2901 29.1074 16.748 29.1074C16.4856 29.1076 16.2235 29.0923 15.963 29.0617C17.4195 29.9971 19.1489 30.5429 21.0077 30.5429" fill="#1777E5"/>
</svg>
