<svg width="48" height="48" viewBox="0 0 48 48" fill="none" xmlns="http://www.w3.org/2000/svg">
<rect x="0.5" y="0.5" width="47" height="47" rx="23.5" stroke="#222628"/>
<path d="M21.3342 24C21.3342 22.5273 22.5278 21.3331 24.0005 21.3331C25.4732 21.3331 26.6673 22.5273 26.6673 24C26.6673 25.4727 25.4732 26.6669 24.0005 26.6669C22.5278 26.6669 21.3342 25.4727 21.3342 24ZM19.8926 24C19.8926 26.2688 21.7317 28.1079 24.0005 28.1079C26.2693 28.1079 28.1084 26.2688 28.1084 24C28.1084 21.7312 26.2693 19.8921 24.0005 19.8921C21.7317 19.8921 19.8926 21.7312 19.8926 24ZM27.311 19.7292C27.3109 19.9191 27.3671 20.1047 27.4726 20.2626C27.578 20.4205 27.7279 20.5436 27.9033 20.6164C28.0786 20.6891 28.2717 20.7082 28.4579 20.6712C28.6441 20.6343 28.8152 20.5429 28.9495 20.4087C29.0839 20.2745 29.1754 20.1035 29.2125 19.9173C29.2496 19.7311 29.2306 19.538 29.1581 19.3626C29.0855 19.1871 28.9625 19.0372 28.8047 18.9316C28.6468 18.8261 28.4612 18.7697 28.2714 18.7696H28.271C28.0165 18.7697 27.7724 18.8708 27.5924 19.0508C27.4124 19.2307 27.3112 19.4747 27.311 19.7292ZM20.7685 30.5118C19.9885 30.4763 19.5646 30.3464 19.2828 30.2366C18.9093 30.0912 18.6429 29.918 18.3627 29.6382C18.0825 29.3584 17.909 29.0922 17.7643 28.7187C17.6544 28.4371 17.5245 28.013 17.4891 27.233C17.4503 26.3898 17.4425 26.1364 17.4425 24.0001C17.4425 21.8637 17.4509 21.6111 17.4891 20.7671C17.5246 19.9871 17.6555 19.5639 17.7643 19.2815C17.9097 18.908 18.0829 18.6415 18.3627 18.3613C18.6425 18.0811 18.9087 17.9076 19.2828 17.7629C19.5644 17.6531 19.9885 17.5231 20.7685 17.4877C21.6117 17.4489 21.8651 17.4412 24.0005 17.4412C26.1359 17.4412 26.3895 17.4495 27.2334 17.4877C28.0134 17.5232 28.4366 17.6541 28.7191 17.7629C29.0926 17.9076 29.3591 18.0815 29.6392 18.3613C29.9194 18.6411 30.0922 18.908 30.2376 19.2815C30.3475 19.5631 30.4774 19.9871 30.5128 20.7671C30.5516 21.6111 30.5594 21.8637 30.5594 24.0001C30.5594 26.1364 30.5516 26.3891 30.5128 27.233C30.4773 28.013 30.3468 28.4369 30.2376 28.7187C30.0922 29.0922 29.9191 29.3587 29.6392 29.6382C29.3594 29.9178 29.0926 30.0912 28.7191 30.2366C28.4375 30.3464 28.0134 30.4764 27.2334 30.5118C26.3902 30.5506 26.1369 30.5583 24.0005 30.5583C21.8641 30.5583 21.6115 30.5506 20.7685 30.5118ZM20.7022 16.0484C19.8506 16.0872 19.2686 16.2223 18.7604 16.42C18.2341 16.6243 17.7885 16.8982 17.3433 17.3428C16.898 17.7873 16.6247 18.2336 16.4205 18.7599C16.2228 19.2685 16.0877 19.8501 16.0489 20.7018C16.0095 21.5548 16.0005 21.8275 16.0005 24C16.0005 26.1725 16.0095 26.4452 16.0489 27.2982C16.0877 28.15 16.2228 28.7315 16.4205 29.2401C16.6247 29.7661 16.8981 30.2129 17.3433 30.6572C17.7885 31.1016 18.2341 31.3752 18.7604 31.58C19.2696 31.7777 19.8506 31.9128 20.7022 31.9516C21.5557 31.9903 21.8279 32 24.0005 32C26.173 32 26.4457 31.991 27.2987 31.9516C28.1504 31.9128 28.732 31.7777 29.2405 31.58C29.7665 31.3752 30.2124 31.1018 30.6577 30.6572C31.1029 30.2127 31.3756 29.7661 31.5804 29.2401C31.7782 28.7315 31.9139 28.1499 31.952 27.2982C31.9908 26.4446 31.9998 26.1725 31.9998 24C31.9998 21.8275 31.9908 21.5548 31.952 20.7018C31.9132 19.85 31.7782 19.2682 31.5804 18.7599C31.3756 18.2339 31.1022 17.788 30.6577 17.3428C30.2131 16.8975 29.7665 16.6243 29.2412 16.42C28.732 16.2223 28.1503 16.0866 27.2993 16.0484C26.4464 16.0097 26.1737 16 24.0011 16C21.8286 16 21.5557 16.009 20.7022 16.0484Z" fill="#1777E5"/>
<path d="M21.3342 24C21.3342 22.5273 22.5278 21.3331 24.0005 21.3331C25.4732 21.3331 26.6673 22.5273 26.6673 24C26.6673 25.4727 25.4732 26.6669 24.0005 26.6669C22.5278 26.6669 21.3342 25.4727 21.3342 24ZM19.8926 24C19.8926 26.2688 21.7317 28.1079 24.0005 28.1079C26.2693 28.1079 28.1084 26.2688 28.1084 24C28.1084 21.7312 26.2693 19.8921 24.0005 19.8921C21.7317 19.8921 19.8926 21.7312 19.8926 24ZM27.311 19.7292C27.3109 19.9191 27.3671 20.1047 27.4726 20.2626C27.578 20.4205 27.7279 20.5436 27.9033 20.6164C28.0786 20.6891 28.2717 20.7082 28.4579 20.6712C28.6441 20.6343 28.8152 20.5429 28.9495 20.4087C29.0839 20.2745 29.1754 20.1035 29.2125 19.9173C29.2496 19.7311 29.2306 19.538 29.1581 19.3626C29.0855 19.1871 28.9625 19.0372 28.8047 18.9316C28.6468 18.8261 28.4612 18.7697 28.2714 18.7696H28.271C28.0165 18.7697 27.7724 18.8708 27.5924 19.0508C27.4124 19.2307 27.3112 19.4747 27.311 19.7292ZM20.7685 30.5118C19.9885 30.4763 19.5646 30.3464 19.2828 30.2366C18.9093 30.0912 18.6429 29.918 18.3627 29.6382C18.0825 29.3584 17.909 29.0922 17.7643 28.7187C17.6544 28.4371 17.5245 28.013 17.4891 27.233C17.4503 26.3898 17.4425 26.1364 17.4425 24.0001C17.4425 21.8637 17.4509 21.6111 17.4891 20.7671C17.5246 19.9871 17.6555 19.5639 17.7643 19.2815C17.9097 18.908 18.0829 18.6415 18.3627 18.3613C18.6425 18.0811 18.9087 17.9076 19.2828 17.7629C19.5644 17.6531 19.9885 17.5231 20.7685 17.4877C21.6117 17.4489 21.8651 17.4412 24.0005 17.4412C26.1359 17.4412 26.3895 17.4495 27.2334 17.4877C28.0134 17.5232 28.4366 17.6541 28.7191 17.7629C29.0926 17.9076 29.3591 18.0815 29.6392 18.3613C29.9194 18.6411 30.0922 18.908 30.2376 19.2815C30.3475 19.5631 30.4774 19.9871 30.5128 20.7671C30.5516 21.6111 30.5594 21.8637 30.5594 24.0001C30.5594 26.1364 30.5516 26.3891 30.5128 27.233C30.4773 28.013 30.3468 28.4369 30.2376 28.7187C30.0922 29.0922 29.9191 29.3587 29.6392 29.6382C29.3594 29.9178 29.0926 30.0912 28.7191 30.2366C28.4375 30.3464 28.0134 30.4764 27.2334 30.5118C26.3902 30.5506 26.1369 30.5583 24.0005 30.5583C21.8641 30.5583 21.6115 30.5506 20.7685 30.5118ZM20.7022 16.0484C19.8506 16.0872 19.2686 16.2223 18.7604 16.42C18.2341 16.6243 17.7885 16.8982 17.3433 17.3428C16.898 17.7873 16.6247 18.2336 16.4205 18.7599C16.2228 19.2685 16.0877 19.8501 16.0489 20.7018C16.0095 21.5548 16.0005 21.8275 16.0005 24C16.0005 26.1725 16.0095 26.4452 16.0489 27.2982C16.0877 28.15 16.2228 28.7315 16.4205 29.2401C16.6247 29.7661 16.8981 30.2129 17.3433 30.6572C17.7885 31.1016 18.2341 31.3752 18.7604 31.58C19.2696 31.7777 19.8506 31.9128 20.7022 31.9516C21.5557 31.9903 21.8279 32 24.0005 32C26.173 32 26.4457 31.991 27.2987 31.9516C28.1504 31.9128 28.732 31.7777 29.2405 31.58C29.7665 31.3752 30.2124 31.1018 30.6577 30.6572C31.1029 30.2127 31.3756 29.7661 31.5804 29.2401C31.7782 28.7315 31.9139 28.1499 31.952 27.2982C31.9908 26.4446 31.9998 26.1725 31.9998 24C31.9998 21.8275 31.9908 21.5548 31.952 20.7018C31.9132 19.85 31.7782 19.2682 31.5804 18.7599C31.3756 18.2339 31.1022 17.788 30.6577 17.3428C30.2131 16.8975 29.7665 16.6243 29.2412 16.42C28.732 16.2223 28.1503 16.0866 27.2993 16.0484C26.4464 16.0097 26.1737 16 24.0011 16C21.8286 16 21.5557 16.009 20.7022 16.0484Z" fill="#1777E5"/>
</svg>
