<svg width="48" height="48" viewBox="0 0 48 48" fill="none" xmlns="http://www.w3.org/2000/svg">
<rect x="0.5" y="0.5" width="47" height="47" rx="23.5" stroke="#222628"/>
<path d="M27.9867 21.9603L26.5698 26.4332L25.5698 18.667C23.3387 18.667 22.1387 20.2652 21.5129 21.9505L19.7849 26.443L19.5422 21.9985C19.4107 19.9328 17.5244 18.6759 16 18.6759L17.8436 29.9114C20.1813 29.9025 21.4436 28.3132 22.104 26.6279L23.5653 22.8083C23.5787 22.9639 24.5751 29.9123 24.5751 29.9123C26.9236 29.9123 28.1858 28.4217 28.8622 26.7941L32.1511 18.6768C29.8356 18.6768 28.6151 20.2652 27.9849 21.9603H27.9867Z" fill="#1777E5"/>
</svg>
