<svg width="56" height="56" viewBox="0 0 56 56" fill="none" xmlns="http://www.w3.org/2000/svg">
<rect width="56" height="56" rx="28" fill="#121314"/>
<path d="M23.5113 37.8151C32.5913 37.8151 37.5568 30.2781 37.5568 23.7422C37.5568 23.5282 37.5525 23.3151 37.5428 23.1029C38.509 22.4025 39.3429 21.5352 40.0053 20.5417C39.1207 20.9357 38.1689 21.2009 37.1704 21.3205C38.1896 20.7082 38.972 19.7395 39.3412 18.5848C38.3721 19.1607 37.312 19.5668 36.2065 19.7854C35.3057 18.8239 34.0232 18.2227 32.6032 18.2227C29.877 18.2227 27.6664 20.4377 27.6664 23.168C27.6664 23.5562 27.7097 23.9337 27.7944 24.2958C23.6916 24.089 20.0535 22.1208 17.6187 19.1281C17.1802 19.8829 16.9495 20.7408 16.9503 21.6141C16.9503 23.3301 17.8218 24.845 19.1471 25.7312C18.3631 25.7072 17.5964 25.4951 16.9114 25.1126C16.9106 25.1334 16.9106 25.1536 16.9106 25.1758C16.9106 27.5711 18.6122 29.571 20.871 30.0242C20.4468 30.14 20.009 30.1985 19.5693 30.1982C19.2518 30.1982 18.9423 30.167 18.6416 30.1091C19.27 32.0743 21.0924 33.5044 23.253 33.5444C21.5634 34.8712 19.4351 35.6616 17.1219 35.6616C16.7283 35.6619 16.3352 35.639 15.9443 35.593C18.1291 36.9961 20.7233 37.8148 23.5115 37.8148" fill="#1DA1F2"/>
</svg>
